<svg width="24" height="25" viewBox="0 0 24 25" fill="none" xmlns="http://www.w3.org/2000/svg">
<path d="M5.575 2.574C5.70231 2.63522 5.80975 2.73115 5.88494 2.85074C5.96013 2.97034 6.00001 3.10873 6 3.25C6 4.08 6.312 4.558 6.703 5.14L6.732 5.182C7.064 5.676 7.5 6.323 7.5 7.25C7.5 7.97935 7.21027 8.67882 6.69454 9.19455C6.17882 9.71027 5.47935 10 4.75 10C4.02065 10 3.32118 9.71027 2.80546 9.19455C2.28973 8.67882 2 7.97935 2 7.25C2 6.882 2 6.249 2.383 5.432C2.758 4.632 3.471 3.713 4.781 2.664C4.89141 2.57569 5.02453 2.52038 5.16502 2.50445C5.3055 2.48853 5.44763 2.51264 5.575 2.574ZM4.75 11.5C5.59223 11.5015 6.41573 11.2514 7.115 10.782C7.376 11.516 7.5 12.492 7.5 13.755C7.5 15.467 7.27 17.523 6.895 19.165C6.709 19.981 6.478 20.734 6.203 21.299C6.07376 21.5805 5.90173 21.8402 5.693 22.069C5.487 22.28 5.17 22.505 4.75 22.505C4.33 22.505 4.013 22.28 3.808 22.069C3.59927 21.8402 3.42724 21.5805 3.298 21.299C3.022 20.733 2.791 19.981 2.605 19.164C2.21458 17.3868 2.01181 15.5735 2 13.754C2 12.492 2.124 11.516 2.385 10.782C3.08427 11.2514 3.90777 11.5015 4.75 11.5ZM8.484 14.577C8.96527 14.7885 9.47689 14.9229 10 14.975V12.75C10 12.3232 10.0841 11.9006 10.2474 11.5063C10.4107 11.112 10.6501 10.7537 10.9519 10.4519C11.5614 9.84241 12.388 9.5 13.25 9.5H15.475C15.3929 8.68148 15.1101 7.89586 14.6516 7.2128C14.1932 6.52975 13.5733 5.97035 12.8469 5.58422C12.1205 5.19808 11.3101 4.99713 10.4875 4.99919C9.66486 5.00125 8.85544 5.20624 8.131 5.596C7.97535 5.26768 7.79202 4.95321 7.583 4.656L7.533 4.582L7.354 4.31C8.30664 3.78307 9.37637 3.50386 10.465 3.49798C11.5537 3.49211 12.6263 3.75976 13.5846 4.27637C14.5429 4.79299 15.3561 5.54202 15.9495 6.45471C16.5429 7.36741 16.8976 8.41454 16.981 9.5H18.75C19.1768 9.5 19.5994 9.58407 19.9937 9.74739C20.388 9.91072 20.7463 10.1501 21.0481 10.4519C21.3499 10.7537 21.5893 11.112 21.7526 11.5063C21.9159 11.9006 22 12.3232 22 12.75V18.25C22 18.6768 21.9159 19.0994 21.7526 19.4937C21.5893 19.888 21.3499 20.2463 21.0481 20.5481C20.7463 20.8499 20.388 21.0893 19.9937 21.2526C19.5994 21.4159 19.1768 21.5 18.75 21.5H13.25C12.388 21.5 11.5614 21.1576 10.9519 20.5481C10.3424 19.9386 10 19.112 10 18.25V16.481C9.4476 16.4389 8.90285 16.3263 8.379 16.146C8.429 15.616 8.465 15.088 8.484 14.577ZM18.75 11H16.924C16.7114 12.3622 16.0714 13.6217 15.0965 14.5965C14.1217 15.5714 12.8622 16.2114 11.5 16.424V18.25C11.5 19.216 12.284 20 13.25 20H18.75C19.2141 20 19.6592 19.8156 19.9874 19.4874C20.3156 19.1593 20.5 18.7141 20.5 18.25V12.75C20.5 12.2859 20.3156 11.8408 19.9874 11.5126C19.6592 11.1844 19.2141 11 18.75 11ZM11.5 14.9C12.4603 14.7028 13.3417 14.2282 14.035 13.535C14.7282 12.8417 15.2028 11.9604 15.4 11H13.25C12.7859 11 12.3408 11.1844 12.0126 11.5126C11.6844 11.8408 11.5 12.2859 11.5 12.75V14.9Z" fill="#FE5D26"/>
</svg>
