<svg width="66" height="66" viewBox="0 0 66 66" fill="none" xmlns="http://www.w3.org/2000/svg">
<rect x="0.360629" y="0.95682" width="64.3636" height="64.3636" rx="8.50784" fill="url(#paint0_linear_160_10076)" fill-opacity="0.2"/>
<rect x="0.360629" y="0.95682" width="64.3636" height="64.3636" rx="8.50784" stroke="#262626" stroke-width="0.739812"/>
<path d="M42.5579 35.7392V26.2646C42.5579 24.9641 42.0006 24.543 40.9478 24.1095C39.4864 23.515 34.7676 21.7192 33.3062 21.2981C32.9717 21.2114 32.6126 21.1123 32.2658 21.1123C31.919 21.1123 31.5598 21.1866 31.2378 21.2981C29.7639 21.8059 25.0452 23.5027 23.5837 24.1095C22.5434 24.5554 21.9736 24.9641 21.9736 26.2646V35.7392C21.9736 40.2599 24.3888 41.9319 31.436 45.8828C31.758 46.0562 32.0676 46.1305 32.2658 46.1305C32.4639 46.1305 32.786 46.0562 33.0955 45.8828C40.1304 41.9195 42.5579 40.2599 42.5579 35.7392ZM32.0057 43.8392C31.8571 43.802 31.6961 43.7154 31.4979 43.5915C25.7883 40.1113 23.9429 39.108 23.9429 35.281V26.6485C23.9429 26.2274 24.0172 26.054 24.364 25.9302C26.2837 25.2737 29.9002 23.9609 31.7704 23.2178C31.8694 23.1806 31.9438 23.1559 32.0057 23.1435V43.8392Z" fill="#34A353"/>
<defs>
<linearGradient id="paint0_linear_160_10076" x1="-83.9779" y1="-63.7767" x2="65.0942" y2="65.6904" gradientUnits="userSpaceOnUse">
<stop offset="0.224072" stop-color="#34A353"/>
<stop offset="0.707836" stop-color="#34A353" stop-opacity="0"/>
</linearGradient>
</defs>
</svg>
