<svg width="66" height="66" viewBox="0 0 66 66" fill="none" xmlns="http://www.w3.org/2000/svg">
<rect x="0.360629" y="0.696566" width="64.3636" height="64.3636" rx="8.50784" fill="url(#paint0_linear_160_10043)" fill-opacity="0.2"/>
<rect x="0.360629" y="0.696566" width="64.3636" height="64.3636" rx="8.50784" stroke="#262626" stroke-width="0.739812"/>
<path d="M43.6397 25.9426C43.6397 29.2624 38.6713 31.9536 32.5425 31.9536C26.4137 31.9536 21.4453 29.2624 21.4453 25.9426C21.4453 22.6228 26.4137 19.9316 32.5425 19.9316C38.6713 19.9316 43.6397 22.6228 43.6397 25.9426Z" fill="#4280EF"/>
<path d="M32.5425 33.8031C35.8534 33.8031 38.9425 33.0802 41.2703 31.8193C42.1211 31.3585 42.9304 30.7876 43.6085 30.1124C43.6292 30.2623 43.6397 30.4137 43.6397 30.5664C43.6397 33.8862 38.6713 36.5774 32.5425 36.5774C26.4137 36.5774 21.4453 33.8862 21.4453 30.5664C21.4453 30.4137 21.4558 30.2623 21.4765 30.1124C22.1546 30.7876 22.9639 31.3585 23.8147 31.8193C26.1425 33.0802 29.2316 33.8031 32.5425 33.8031Z" fill="#4280EF"/>
<path d="M32.5425 38.4269C35.8534 38.4269 38.9425 37.704 41.2703 36.4431C42.1211 35.9823 42.9304 35.4114 43.6085 34.7362C43.6292 34.8861 43.6397 35.0375 43.6397 35.1903C43.6397 38.51 38.6713 41.2012 32.5425 41.2012C26.4137 41.2012 21.4453 38.51 21.4453 35.1903C21.4453 35.0375 21.4558 34.8861 21.4765 34.7362C22.1546 35.4114 22.9639 35.9823 23.8147 36.4431C26.1425 37.704 29.2316 38.4269 32.5425 38.4269Z" fill="#4280EF"/>
<path d="M32.5425 43.0508C35.8534 43.0508 38.9425 42.3278 41.2703 41.0669C42.1211 40.6061 42.9304 40.0352 43.6085 39.36C43.6292 39.5099 43.6397 39.6613 43.6397 39.8141C43.6397 43.1338 38.6713 45.8251 32.5425 45.8251C26.4137 45.8251 21.4453 43.1338 21.4453 39.8141C21.4453 39.6613 21.4558 39.5099 21.4765 39.36C22.1546 40.0352 22.9639 40.6061 23.8147 41.0669C26.1425 42.3278 29.2316 43.0508 32.5425 43.0508Z" fill="#4280EF"/>
<defs>
<linearGradient id="paint0_linear_160_10043" x1="-83.9779" y1="-64.037" x2="65.0942" y2="65.4301" gradientUnits="userSpaceOnUse">
<stop offset="0.224072" stop-color="#4280EF"/>
<stop offset="0.707836" stop-color="#4280EF"/>
</linearGradient>
</defs>
</svg>
