<svg width="66" height="66" viewBox="0 0 66 66" fill="none" xmlns="http://www.w3.org/2000/svg">
<rect x="0.360629" y="0.696566" width="64.3636" height="64.3636" rx="8.50784" fill="url(#paint0_linear_160_10049)" fill-opacity="0.2"/>
<rect x="0.360629" y="0.696566" width="64.3636" height="64.3636" rx="8.50784" stroke="#262626" stroke-width="0.739812"/>
<path fill-rule="evenodd" clip-rule="evenodd" d="M26.9939 24.5555C26.9939 22.5126 28.65 20.8564 30.6929 20.8564H34.392C36.4349 20.8564 38.091 22.5126 38.091 24.5555V24.8082C39.2408 24.9135 40.3812 25.0511 41.5115 25.2202C43.3044 25.4885 44.5644 27.0482 44.5644 28.8164V32.5564C44.5644 34.0498 43.6598 35.4569 42.1769 35.9499C39.1472 36.9572 35.9076 37.5022 32.5425 37.5022C29.1774 37.5022 25.9377 36.9572 22.908 35.9499C21.4251 35.4569 20.5205 34.0498 20.5205 32.5564V28.8164C20.5205 27.0482 21.7805 25.4885 23.5734 25.2202C24.7037 25.0511 25.8441 24.9135 26.9939 24.8082V24.5555ZM36.2415 24.5555V24.6675C35.0179 24.5932 33.7845 24.5555 32.5425 24.5555C31.3004 24.5555 30.067 24.5932 28.8434 24.6675V24.5555C28.8434 23.534 29.6715 22.706 30.6929 22.706H34.392C35.4134 22.706 36.2415 23.534 36.2415 24.5555ZM32.5425 34.7279C33.0532 34.7279 33.4672 34.3139 33.4672 33.8032C33.4672 33.2924 33.0532 32.8784 32.5425 32.8784C32.0317 32.8784 31.6177 33.2924 31.6177 33.8032C31.6177 34.3139 32.0317 34.7279 32.5425 34.7279Z" fill="#4280EF"/>
<path d="M21.4453 40.7697V37.3221C21.7203 37.4729 22.0137 37.6017 22.3245 37.705C25.54 38.774 28.9766 39.3517 32.5425 39.3517C36.1084 39.3517 39.5449 38.7741 42.7604 37.705C43.0712 37.6017 43.3646 37.473 43.6396 37.3221V40.7697C43.6396 42.5599 42.3484 44.1328 40.5286 44.3744C37.9154 44.7213 35.2496 44.9003 32.5425 44.9003C29.8353 44.9003 27.1695 44.7213 24.5563 44.3744C22.7365 44.1328 21.4453 42.5599 21.4453 40.7697Z" fill="#4280EF"/>
<defs>
<linearGradient id="paint0_linear_160_10049" x1="-83.9779" y1="-64.037" x2="65.0942" y2="65.4301" gradientUnits="userSpaceOnUse">
<stop offset="0.224072" stop-color="#4280EF"/>
<stop offset="0.707836" stop-color="#4280EF"/>
</linearGradient>
</defs>
</svg>
