<svg width="66" height="66" viewBox="0 0 66 66" fill="none" xmlns="http://www.w3.org/2000/svg">
<rect x="0.360629" y="0.696566" width="64.3636" height="64.3636" rx="8.50784" fill="url(#paint0_linear_160_10055)" fill-opacity="0.2"/>
<rect x="0.360629" y="0.696566" width="64.3636" height="64.3636" rx="8.50784" stroke="#262626" stroke-width="0.739812"/>
<g clip-path="url(#clip0_160_10055)">
<path d="M28.2036 44.8177C28.4266 44.8177 28.5876 44.6566 28.6247 44.4214C29.0211 41.1145 29.1821 41.0277 32.5508 40.4828C32.8109 40.4332 32.9719 40.3094 32.9719 40.0618C32.9719 39.8264 32.8109 39.6778 32.6004 39.6406C29.2068 38.9966 29.0211 39.009 28.6247 35.7022C28.5876 35.4668 28.4266 35.3058 28.2036 35.3058C27.9683 35.3058 27.8073 35.4668 27.7825 35.6898C27.349 39.0461 27.2376 39.1576 23.8069 39.6406C23.5963 39.6654 23.4353 39.8264 23.4353 40.0618C23.4353 40.297 23.5963 40.4332 23.8069 40.4828C27.2376 41.1392 27.3367 41.1392 27.7825 44.4461C27.8073 44.6566 27.9683 44.8177 28.2036 44.8177ZM22.3206 34.0301C22.494 34.0301 22.5931 33.9063 22.6303 33.7452C23.0514 31.3921 23.0637 31.2434 25.5532 30.8224C25.7142 30.7852 25.838 30.6861 25.838 30.5127C25.838 30.3393 25.7142 30.2279 25.5532 30.2031C23.0637 29.7696 23.0514 29.621 22.6303 27.2678C22.5931 27.1068 22.494 26.9953 22.3206 26.9953C22.1472 26.9953 22.0482 27.1068 22.011 27.2678C21.5899 29.621 21.5775 29.7696 19.0881 30.2031C18.9271 30.2279 18.8032 30.3393 18.8032 30.5127C18.8032 30.6861 18.9271 30.7852 19.0881 30.8224C21.5775 31.2434 21.5899 31.3921 22.011 33.7452C22.0482 33.9063 22.1472 34.0301 22.3206 34.0301ZM29.1077 26.1036C29.2564 26.1036 29.3307 26.0169 29.3555 25.8806C29.7765 23.899 29.7518 23.8247 31.8325 23.4036C31.9687 23.3788 32.0678 23.2921 32.0678 23.1559C32.0678 23.0073 31.9687 22.9205 31.8325 22.8958C29.7518 22.4747 29.7765 22.4004 29.3555 20.4311C29.3307 20.2949 29.2564 20.1958 29.1077 20.1958C28.9591 20.1958 28.8848 20.2949 28.86 20.4311C28.4389 22.4004 28.4637 22.4747 26.383 22.8958C26.2468 22.9205 26.1477 23.0073 26.1477 23.1559C26.1477 23.2921 26.2468 23.3788 26.383 23.4036C28.4637 23.8247 28.4389 23.899 28.86 25.8806C28.8848 26.0169 28.9591 26.1036 29.1077 26.1036ZM39.338 30.4756C39.5114 30.4756 39.6104 30.3641 39.6476 30.2031C40.0687 27.8499 40.0811 27.7013 42.5705 27.2678C42.7439 27.243 42.8554 27.1315 42.8554 26.9581C42.8554 26.7848 42.7439 26.6857 42.5705 26.6485C40.0811 26.2274 40.0687 26.0788 39.6476 23.7256C39.6104 23.5646 39.5114 23.4407 39.338 23.4407C39.1645 23.4407 39.0655 23.5646 39.0283 23.7256C38.6072 26.0788 38.5949 26.2274 36.1054 26.6485C35.9445 26.6857 35.8206 26.7848 35.8206 26.9581C35.8206 27.1315 35.9445 27.243 36.1054 27.2678C38.5949 27.7013 38.6072 27.8499 39.0283 30.2031C39.0655 30.3641 39.1645 30.4756 39.338 30.4756ZM43.4747 44.6195C43.9948 45.1521 44.8866 45.1521 45.3819 44.6195C45.8897 44.0746 45.8897 43.2324 45.3819 42.7122L33.6036 30.8967C33.0834 30.3765 32.1917 30.3765 31.6962 30.8967C31.176 31.4416 31.1885 32.2962 31.6962 32.8164L43.4747 44.6195ZM36.2664 36.1108L32.6375 32.4696C32.4146 32.2466 32.3403 31.999 32.5632 31.7884C32.749 31.5902 33.0091 31.6397 33.2445 31.8751L36.8857 35.5164L36.2664 36.1108Z" fill="#4280EF"/>
</g>
<defs>
<linearGradient id="paint0_linear_160_10055" x1="-83.9779" y1="-64.037" x2="65.0942" y2="65.4301" gradientUnits="userSpaceOnUse">
<stop offset="0.224072" stop-color="#4280EF"/>
<stop offset="0.707836" stop-color="#4280EF"/>
</linearGradient>
<clipPath id="clip0_160_10055">
<rect width="26.9596" height="24.882" fill="white" transform="translate(18.8032 20.1958)"/>
</clipPath>
</defs>
</svg>
