<svg width="142" height="56" viewBox="0 0 142 56" fill="none" xmlns="http://www.w3.org/2000/svg">
<line x1="49.9098" y1="15.7544" x2="49.9098" y2="17.7676" stroke="#FE5D26" stroke-width="2.5295" stroke-linecap="round"/>
<line x1="55.485" y1="11.9343" x2="55.485" y2="21.5877" stroke="#F6B704" stroke-width="2.5295" stroke-linecap="round"/>
<line x1="61.0602" y1="2.64231" x2="61.0602" y2="30.8798" stroke="#34A353" stroke-width="2.5295" stroke-linecap="round"/>
<line x1="66.6354" y1="7.49485" x2="66.6354" y2="26.0273" stroke="#4280EF" stroke-width="2.5295" stroke-linecap="round"/>
<line x1="72.2106" y1="15.6512" x2="72.2105" y2="17.871" stroke="#BD1E51" stroke-width="2.5295" stroke-linecap="round"/>
<line x1="77.7857" y1="11.7279" x2="77.7857" y2="21.7943" stroke="#FE5D26" stroke-width="2.5295" stroke-linecap="round"/>
<line x1="83.3609" y1="6.25584" x2="83.3609" y2="27.2662" stroke="#F6B704" stroke-width="2.5295" stroke-linecap="round"/>
<line x1="88.9361" y1="13.2766" x2="88.9361" y2="20.2456" stroke="#34A353" stroke-width="2.5295" stroke-linecap="round"/>
<line x1="94.5113" y1="15.9609" x2="94.5113" y2="17.5612" stroke="#4280EF" stroke-width="2.5295" stroke-linecap="round"/>
<path d="M30.2618 35.4958V50.3574H27.842V43.6626H22.2361V42.0091H27.842V35.4958H30.2618ZM18.9492 35.4958H21.4094V50.3574H18.9492V35.4958Z" fill="url(#paint0_angular_634_524)"/>
<path d="M39.1747 38.8835C39.9007 38.9507 40.5527 39.1457 41.1307 39.4683C41.7222 39.791 42.2264 40.2077 42.6431 40.7185C43.0598 41.2294 43.3758 41.8142 43.5909 42.4729C43.8194 43.1316 43.9337 43.8172 43.9337 44.5297C43.9337 44.8524 43.9135 45.175 43.8732 45.4977H36.9566V43.7231H41.6147C41.6147 43.3736 41.5542 43.0375 41.4332 42.7149C41.3257 42.3922 41.1576 42.0965 40.9291 41.8276C40.714 41.5453 40.4586 41.3101 40.1628 41.1218C39.8671 40.9336 39.5377 40.8194 39.1747 40.779V38.8835ZM39.0941 48.4619C39.2419 48.4619 39.4234 48.4485 39.6385 48.4216C39.8671 48.3813 40.1023 48.3208 40.3443 48.2401C40.5997 48.146 40.8484 48.0317 41.0904 47.8973C41.3458 47.7629 41.5676 47.6015 41.7558 47.4133L42.6431 48.7644C42.1995 49.3156 41.6819 49.7323 41.0904 50.0146C40.4989 50.2969 39.7461 50.4381 38.8319 50.4381C38.0925 50.4381 37.4002 50.2902 36.7549 49.9945C36.1096 49.6853 35.5585 49.2685 35.1014 48.7442C34.6443 48.2199 34.2813 47.6083 34.0125 46.9092C33.7436 46.2102 33.6092 45.4573 33.6092 44.6507C33.6092 43.8845 33.7302 43.1585 33.9722 42.4729C34.2276 41.7873 34.5704 41.1891 35.0006 40.6782C35.4308 40.1539 35.9282 39.7305 36.4928 39.4078C37.0708 39.0852 37.6892 38.9037 38.348 38.8634V40.7992C37.8506 40.8933 37.4405 41.095 37.1179 41.4042C36.7953 41.7134 36.5398 42.0696 36.3516 42.4729C36.1769 42.8628 36.0491 43.2661 35.9685 43.6828C35.9013 44.0995 35.8677 44.4558 35.8677 44.7515C35.8677 45.2758 35.9282 45.7665 36.0491 46.2236C36.1836 46.6672 36.3852 47.0571 36.6541 47.3932C36.923 47.7158 37.2523 47.978 37.6422 48.1796C38.0455 48.3678 38.5294 48.4619 39.0941 48.4619ZM49.4589 38.9844L49.721 40.1539V46.3244V46.3648V50.3574H47.2811V38.9844H49.4589ZM50.5478 39.4885C50.8839 39.3003 51.2872 39.1591 51.7577 39.065C52.2282 38.9575 52.8668 38.9037 53.6734 38.9037V41.4445C53.297 41.3369 52.8399 41.2764 52.3021 41.263C52.0064 41.263 51.7039 41.2899 51.3947 41.3437C51.099 41.384 50.8167 41.4512 50.5478 41.5453V39.4885ZM59.5212 46.9092C59.5212 47.3663 59.5817 47.7225 59.7027 47.978C59.8237 48.2334 59.9917 48.4283 60.2068 48.5627C60.4354 48.6972 60.6841 48.7846 60.9529 48.8249C61.2352 48.8518 61.531 48.8652 61.8402 48.8652V50.3574C61.6654 50.3843 61.4907 50.4045 61.3159 50.4179C61.168 50.4314 60.9865 50.4381 60.7714 50.4381C60.5698 50.4515 60.3681 50.4582 60.1665 50.4582C59.9648 50.4582 59.7565 50.4515 59.5414 50.4381C59.3397 50.4246 59.165 50.4045 59.0171 50.3776C58.56 50.2969 58.2038 50.102 57.9483 49.7928C57.6929 49.4702 57.498 49.1206 57.3636 48.7442C57.2426 48.3544 57.1619 47.978 57.1216 47.615C57.0947 47.252 57.0812 46.9697 57.0812 46.7681V40.6379H55.589V38.9844H57.0812V35.758H59.5212V38.9844H61.3361V40.6379H59.5212V46.9092ZM64.7036 38.9844H73.3544V40.9404L67.5066 48.0788L67.1033 48.4014H73.3544V50.3574H64.7036V48.4014L70.5515 41.263L70.9548 40.9404H64.7036V38.9844ZM89.8292 38.9844H92.4708L89.2646 50.4381H86.1189L84.909 45.7396V38.9844H85.7962L87.7119 48.4619L89.8292 38.9844ZM81.0373 48.4619L83.1546 38.9844H84.0822V45.1347L82.6303 50.4381H79.4644L76.5405 38.9844H79.1619L81.0373 48.4619ZM100.658 38.9239C101.397 38.9642 102.069 39.1457 102.674 39.4683C103.279 39.7775 103.783 40.1943 104.187 40.7185C104.603 41.2294 104.926 41.8276 105.155 42.5132C105.383 43.1988 105.497 43.9315 105.497 44.7112C105.497 45.4909 105.376 46.2236 105.134 46.9092C104.906 47.5814 104.583 48.1729 104.167 48.6837C103.75 49.1811 103.239 49.5844 102.634 49.8936C102.029 50.2028 101.37 50.3843 100.658 50.4381V48.5022C101.33 48.3544 101.874 47.9309 102.291 47.2318C102.721 46.5328 102.936 45.6926 102.936 44.7112C102.936 44.2138 102.883 43.75 102.775 43.3198C102.681 42.8762 102.533 42.4796 102.332 42.1301C102.13 41.7806 101.888 41.4915 101.606 41.263C101.323 41.0345 101.007 40.8866 100.658 40.8194V38.9239ZM95.0318 44.6709C95.0318 43.8912 95.1461 43.1652 95.3746 42.4931C95.6031 41.8209 95.9258 41.2361 96.3425 40.7387C96.7727 40.2279 97.2836 39.8178 97.8751 39.5086C98.4666 39.1995 99.1186 39.0112 99.8311 38.944V40.8194C99.1589 40.9673 98.6212 41.3907 98.2179 42.0898C97.8146 42.7888 97.6129 43.629 97.6129 44.6104C97.6129 45.1078 97.66 45.5783 97.7541 46.0219C97.8616 46.4656 98.0095 46.8622 98.1977 47.2117C98.3859 47.5612 98.6144 47.8502 98.8833 48.0788C99.1656 48.3073 99.4815 48.4485 99.8311 48.5022V50.4381C99.0917 50.3843 98.4262 50.2028 97.8347 49.8936C97.2432 49.571 96.7391 49.1542 96.3224 48.6434C95.9056 48.1325 95.583 47.5343 95.3544 46.8487C95.1393 46.1631 95.0318 45.4372 95.0318 44.6709ZM110.841 38.9844L111.103 40.1539V46.3244V46.3648V50.3574H108.663V38.9844H110.841ZM111.93 39.4885C112.266 39.3003 112.669 39.1591 113.14 39.065C113.61 38.9575 114.249 38.9037 115.056 38.9037V41.4445C114.679 41.3369 114.222 41.2764 113.684 41.263C113.389 41.263 113.086 41.2899 112.777 41.3437C112.481 41.384 112.199 41.4512 111.93 41.5453V39.4885ZM122.517 44.6507L127.034 50.3574H124.251L120.944 46.0018V43.1988L123.767 38.9844H126.509L122.517 44.6507ZM117.657 50.3574V34.6892H120.117V50.3574H117.657Z" fill="white"/>
<path d="M139.233 35.4958V37.4518L132.156 48.0788L131.752 48.4014H139.233V50.3574H129.353V48.4014L136.431 37.7745L136.854 37.4518H129.353V35.4958H139.233Z" fill="url(#paint1_angular_634_524)"/>
<path d="M10.2517 30.5239L10.8348 35.2941L11.4499 30.8479L10.2517 30.5239ZM14.9337 31.4356L12.3756 35.4217L16.0478 32.3786L14.9337 31.4356ZM6.14549 32.3357V33.6216L9.36379 35.4217L6.14549 32.3357ZM14.198 35.5323C16.1016 40.3772 15.4112 45.9284 14.198 50.6321H21.4259V35.5323H14.198ZM10.933 36.027C10.9095 36.0267 10.8857 36.027 10.8617 36.0278C10.3417 36.0457 9.76212 36.3202 9.28761 36.7733C8.63236 37.4002 8.29717 38.2513 8.44987 38.9007C6.58058 39.4337 5.26817 41.6057 5.05856 43.3101C4.89372 44.9139 5.69503 45.9604 5.08173 46.9968L2.64035 48.6704L1.79053 49.1018L3.24517 50.7698H3.89677L3.17937 49.3815L6.20788 47.717C6.81844 47.3459 6.87522 46.6925 7.00877 45.9437C7.67952 46.4562 8.40356 46.945 8.98441 47.3454C8.72022 48.5401 7.3833 49.6262 6.55383 50.7698H9.78675L9.66608 50.545C9.66608 50.545 8.04478 50.251 7.84788 50.2214C7.84165 50.2219 7.83583 50.2216 7.83097 50.2206C7.81739 50.2173 7.82752 50.2184 7.84788 50.2214C8.18614 50.2008 10.5532 47.9798 10.4869 47.4363C9.92624 46.4388 9.07335 45.5016 8.20333 44.5763C8.27998 43.477 8.29888 42.3007 9.89609 41.3141L14.4673 41.1171C14.4283 40.1515 14.2791 38.5358 14.0374 38.2682C13.6343 38.5936 13.5857 39.5992 13.5543 40.367L10.2535 40.2685C9.90265 40.2413 9.63272 39.9299 9.37489 39.7152C9.93983 39.7823 10.6219 39.5033 11.1702 38.9806C12.0289 38.1606 12.3036 37.0017 11.7837 36.3921C11.5845 36.1586 11.2865 36.0312 10.933 36.0271V36.027Z" fill="url(#paint2_angular_634_524)"/>
<defs>
<radialGradient id="paint0_angular_634_524" cx="0" cy="0" r="1" gradientUnits="userSpaceOnUse" gradientTransform="translate(79.0537 42.3574) scale(62 13)">
<stop offset="0.29" stop-color="#4280EF"/>
<stop offset="0.765" stop-color="#34A353"/>
</radialGradient>
<radialGradient id="paint1_angular_634_524" cx="0" cy="0" r="1" gradientUnits="userSpaceOnUse" gradientTransform="translate(121.214 44.6934) rotate(-6.71502) scale(19.977 4.18572)">
<stop offset="0.102353" stop-color="#34A353"/>
<stop offset="0.198482" stop-color="#FE5D26"/>
<stop offset="0.844757" stop-color="#4280EF"/>
</radialGradient>
<radialGradient id="paint2_angular_634_524" cx="0" cy="0" r="1" gradientUnits="userSpaceOnUse" gradientTransform="translate(11.6082 40.6469) rotate(148.919) scale(12.9301 12.5402)">
<stop offset="0.129161" stop-color="#4280EF"/>
<stop offset="0.592382" stop-color="#F6B704"/>
<stop offset="0.811312" stop-color="#AB2494"/>
<stop offset="1" stop-color="#34A353"/>
</radialGradient>
</defs>
</svg>
