<svg width="1280" height="1114" viewBox="0 0 1280 1114" fill="none" xmlns="http://www.w3.org/2000/svg">
<g filter="url(#filter0_f_160_10180)">
<rect x="206" y="216" width="1280" height="682" fill="url(#paint0_diamond_160_10180)"/>
</g>
<g filter="url(#filter1_d_160_10180)">
<path d="M1015.22 363V481.478H1011.96V363H1015.22Z" fill="url(#paint1_linear_160_10180)" shape-rendering="crispEdges"/>
</g>
<g filter="url(#filter2_d_160_10180)">
<rect x="1015.22" y="553.218" width="166.304" height="3.26087" transform="rotate(90 1015.22 553.218)" fill="#FE5D26"/>
</g>
<g filter="url(#filter3_d_160_10180)">
<path d="M1013.59 553.218C992.876 553.218 976.087 536.428 976.087 515.718C976.087 495.007 992.876 478.218 1013.59 478.218C1034.3 478.218 1051.09 495.007 1051.09 515.718C1051.09 536.428 1034.3 553.218 1013.59 553.218ZM1013.59 481.968C994.947 481.968 979.837 497.078 979.837 515.718C979.837 534.357 994.947 549.468 1013.59 549.468C1032.23 549.468 1047.34 534.357 1047.34 515.718C1047.34 497.078 1032.23 481.968 1013.59 481.968Z" fill="#FE5D26"/>
</g>
<g filter="url(#filter4_d_160_10180)">
<circle cx="1013.59" cy="515.718" r="13.587" transform="rotate(90 1013.59 515.718)" fill="#FE5D26"/>
</g>
<g filter="url(#filter5_d_160_10180)">
<path d="M957.065 673.87C950.762 673.87 945.652 668.76 945.652 662.457C945.652 656.154 950.762 651.044 957.065 651.044C963.368 651.044 968.478 656.154 968.478 662.457C968.478 668.76 963.368 673.87 957.065 673.87ZM957.065 652.185C951.392 652.185 946.793 656.784 946.793 662.457C946.793 668.13 951.392 672.729 957.065 672.729C962.738 672.729 967.337 668.13 967.337 662.457C967.337 656.784 962.738 652.185 957.065 652.185Z" fill="#FE5D26"/>
</g>
<g filter="url(#filter6_d_160_10180)">
<circle cx="957.065" cy="662.457" r="3.80435" transform="rotate(90 957.065 662.457)" fill="#FE5D26"/>
</g>
<g filter="url(#filter7_d_160_10180)">
<path d="M1013.59 742.348C1007.28 742.348 1002.17 737.238 1002.17 730.935C1002.17 724.631 1007.28 719.521 1013.59 719.521C1019.89 719.521 1025 724.631 1025 730.935C1025 737.238 1019.89 742.348 1013.59 742.348ZM1013.59 720.663C1007.91 720.663 1003.32 725.262 1003.32 730.935C1003.32 736.607 1007.91 741.206 1013.59 741.206C1019.26 741.206 1023.86 736.607 1023.86 730.935C1023.86 725.262 1019.26 720.663 1013.59 720.663Z" fill="#FE5D26"/>
</g>
<g filter="url(#filter8_d_160_10180)">
<circle cx="1013.59" cy="730.935" r="3.80435" transform="rotate(90 1013.59 730.935)" fill="#FE5D26"/>
</g>
<g filter="url(#filter9_d_160_10180)">
<path d="M1013.04 557.565V617.892C1013.04 643.105 992.604 663.544 967.391 663.544V663.544" stroke="#FE5D26" stroke-width="2.17391"/>
</g>
<g filter="url(#filter10_d_160_10180)">
<path d="M1070.11 673.87C1076.41 673.87 1081.52 668.76 1081.52 662.457C1081.52 656.154 1076.41 651.044 1070.11 651.044C1063.81 651.044 1058.7 656.154 1058.7 662.457C1058.7 668.76 1063.81 673.87 1070.11 673.87ZM1070.11 652.185C1075.78 652.185 1080.38 656.784 1080.38 662.457C1080.38 668.13 1075.78 672.729 1070.11 672.729C1064.44 672.729 1059.84 668.13 1059.84 662.457C1059.84 656.784 1064.44 652.185 1070.11 652.185Z" fill="#FE5D26"/>
</g>
<g filter="url(#filter11_d_160_10180)">
<circle cx="3.80435" cy="3.80435" r="3.80435" transform="matrix(0 1 1 0 1066.3 658.652)" fill="#FE5D26"/>
</g>
<g filter="url(#filter12_d_160_10180)">
<path d="M1014.13 557.565V617.892C1014.13 643.105 1034.57 663.544 1059.78 663.544V663.544" stroke="#FE5D26" stroke-width="2.17391"/>
</g>
<g clip-path="url(#clip0_160_10180)">
<rect x="746" y="328" width="407" height="219" rx="15" fill="#0D1117"/>
<rect x="771.241" y="412.44" width="326.866" height="146.726" rx="3.45025" fill="#0D1117" stroke="#30363D" stroke-width="0.363184"/>
<path d="M771.423 416.254C771.423 414.248 773.049 412.622 775.055 412.622H1094.29C1096.3 412.622 1097.93 414.248 1097.93 416.254V426.786H771.423V416.254Z" fill="#161B22"/>
<rect x="1066.15" y="395.371" width="30.8706" height="11.2587" rx="1.99751" fill="#4280EF" stroke="#6C96F2" stroke-width="0.363184"/>
<rect x="1026.56" y="395.371" width="31.597" height="11.2587" rx="1.99751" fill="#21262D" stroke="#475569" stroke-width="0.363184"/>
<rect x="987.699" y="395.371" width="30.8706" height="11.2587" rx="1.99751" fill="#21262D" stroke="#475569" stroke-width="0.363184"/>
<rect x="771.604" y="395.371" width="30.8706" height="11.2587" rx="1.99751" fill="#21262D" stroke="#475569" stroke-width="0.363184"/>
<path d="M782.899 357.541C782.899 359.31 782.418 360.663 781.455 361.601C780.498 362.534 779.118 363 777.316 363H774.348V352.288H777.631C779.296 352.288 780.591 352.75 781.514 353.673C782.437 354.596 782.899 355.886 782.899 357.541ZM781.58 357.585C781.58 356.188 781.228 355.136 780.525 354.427C779.826 353.719 778.786 353.365 777.404 353.365H775.594V361.923H777.11C778.595 361.923 779.712 361.559 780.459 360.831C781.206 360.099 781.58 359.017 781.58 357.585ZM788.129 363.147C786.942 363.147 786.004 362.785 785.315 362.062C784.631 361.339 784.289 360.335 784.289 359.051C784.289 357.756 784.607 356.728 785.242 355.966C785.882 355.204 786.739 354.823 787.814 354.823C788.82 354.823 789.616 355.155 790.202 355.82C790.788 356.479 791.081 357.351 791.081 358.435V359.205H785.55C785.574 360.147 785.811 360.863 786.26 361.351C786.715 361.84 787.352 362.084 788.173 362.084C789.037 362.084 789.892 361.903 790.737 361.542V362.626C790.307 362.812 789.899 362.944 789.513 363.022C789.132 363.105 788.671 363.147 788.129 363.147ZM787.799 355.842C787.154 355.842 786.639 356.052 786.253 356.472C785.872 356.892 785.647 357.473 785.579 358.216H789.777C789.777 357.449 789.606 356.862 789.264 356.457C788.922 356.047 788.434 355.842 787.799 355.842ZM797.967 360.809C797.967 361.557 797.689 362.133 797.132 362.538C796.575 362.944 795.794 363.147 794.787 363.147C793.723 363.147 792.892 362.978 792.296 362.641V361.513C792.682 361.708 793.095 361.862 793.535 361.974C793.979 362.087 794.406 362.143 794.817 362.143C795.452 362.143 795.94 362.043 796.282 361.842C796.624 361.637 796.795 361.327 796.795 360.912C796.795 360.599 796.658 360.333 796.385 360.113C796.116 359.888 795.588 359.625 794.802 359.322C794.055 359.043 793.522 358.802 793.205 358.597C792.892 358.386 792.658 358.15 792.501 357.886C792.35 357.622 792.274 357.307 792.274 356.941C792.274 356.286 792.54 355.771 793.073 355.395C793.605 355.014 794.336 354.823 795.264 354.823C796.128 354.823 796.973 354.999 797.799 355.351L797.366 356.34C796.561 356.008 795.83 355.842 795.176 355.842C794.599 355.842 794.165 355.932 793.872 356.113C793.578 356.293 793.432 356.543 793.432 356.86C793.432 357.075 793.486 357.258 793.593 357.41C793.705 357.561 793.884 357.705 794.128 357.842C794.372 357.979 794.841 358.176 795.535 358.435C796.487 358.782 797.13 359.131 797.462 359.483C797.799 359.835 797.967 360.277 797.967 360.809ZM800.794 363H799.578V354.97H800.794V363ZM799.475 352.794C799.475 352.515 799.544 352.312 799.68 352.185C799.817 352.054 799.988 351.988 800.193 351.988C800.389 351.988 800.557 352.054 800.699 352.185C800.84 352.317 800.911 352.52 800.911 352.794C800.911 353.067 800.84 353.272 800.699 353.409C800.557 353.541 800.389 353.607 800.193 353.607C799.988 353.607 799.817 353.541 799.68 353.409C799.544 353.272 799.475 353.067 799.475 352.794ZM809.57 354.97V355.739L808.083 355.915C808.22 356.086 808.342 356.311 808.449 356.589C808.557 356.862 808.61 357.173 808.61 357.519C808.61 358.306 808.342 358.934 807.804 359.402C807.267 359.871 806.53 360.106 805.592 360.106C805.352 360.106 805.128 360.086 804.918 360.047C804.4 360.321 804.141 360.665 804.141 361.08C804.141 361.3 804.231 361.464 804.412 361.571C804.593 361.674 804.903 361.725 805.343 361.725H806.764C807.633 361.725 808.3 361.908 808.764 362.275C809.233 362.641 809.468 363.173 809.468 363.872C809.468 364.761 809.111 365.437 808.398 365.901C807.685 366.37 806.644 366.605 805.277 366.605C804.226 366.605 803.416 366.409 802.844 366.019C802.277 365.628 801.994 365.076 801.994 364.363C801.994 363.874 802.15 363.452 802.463 363.095C802.776 362.739 803.215 362.497 803.782 362.37C803.577 362.277 803.403 362.133 803.262 361.938C803.125 361.742 803.057 361.515 803.057 361.256C803.057 360.963 803.135 360.707 803.291 360.487C803.447 360.267 803.694 360.055 804.031 359.849C803.616 359.678 803.276 359.388 803.013 358.978C802.754 358.567 802.624 358.098 802.624 357.571C802.624 356.692 802.888 356.015 803.416 355.541C803.943 355.062 804.691 354.823 805.658 354.823C806.078 354.823 806.456 354.872 806.793 354.97H809.57ZM803.167 364.348C803.167 364.783 803.35 365.113 803.716 365.337C804.082 365.562 804.607 365.674 805.291 365.674C806.312 365.674 807.067 365.52 807.555 365.213C808.049 364.91 808.295 364.497 808.295 363.974C808.295 363.54 808.161 363.237 807.892 363.066C807.624 362.9 807.118 362.817 806.376 362.817H804.918C804.366 362.817 803.936 362.949 803.628 363.212C803.32 363.476 803.167 363.855 803.167 364.348ZM803.826 357.541C803.826 358.103 803.985 358.528 804.302 358.816C804.62 359.105 805.062 359.249 805.628 359.249C806.815 359.249 807.409 358.672 807.409 357.519C807.409 356.313 806.808 355.71 805.606 355.71C805.035 355.71 804.595 355.864 804.288 356.171C803.98 356.479 803.826 356.936 803.826 357.541ZM816.339 363V357.805C816.339 357.151 816.19 356.662 815.892 356.34C815.594 356.017 815.127 355.856 814.492 355.856C813.652 355.856 813.037 356.083 812.646 356.538C812.255 356.992 812.06 357.742 812.06 358.787V363H810.844V354.97H811.833L812.031 356.069H812.089C812.338 355.673 812.688 355.368 813.137 355.153C813.586 354.933 814.087 354.823 814.639 354.823C815.606 354.823 816.334 355.058 816.822 355.527C817.311 355.991 817.555 356.735 817.555 357.761V363H816.339ZM823.752 352.288L819.759 363H818.543L822.536 352.288H823.752ZM830.286 361.923H830.22C829.659 362.739 828.819 363.147 827.7 363.147C826.65 363.147 825.832 362.788 825.245 362.069C824.664 361.351 824.374 360.331 824.374 359.007C824.374 357.683 824.667 356.655 825.253 355.922C825.839 355.189 826.655 354.823 827.7 354.823C828.789 354.823 829.625 355.219 830.206 356.01H830.301L830.25 355.431L830.22 354.867V351.599H831.437V363H830.448L830.286 361.923ZM827.854 362.128C828.684 362.128 829.285 361.903 829.656 361.454C830.032 361 830.22 360.269 830.22 359.263V359.007C830.22 357.869 830.03 357.058 829.649 356.574C829.273 356.086 828.67 355.842 827.839 355.842C827.126 355.842 826.579 356.12 826.198 356.677C825.822 357.229 825.634 358.01 825.634 359.021C825.634 360.047 825.822 360.821 826.198 361.344C826.574 361.867 827.126 362.128 827.854 362.128ZM837.04 363.147C835.853 363.147 834.916 362.785 834.227 362.062C833.543 361.339 833.201 360.335 833.201 359.051C833.201 357.756 833.519 356.728 834.154 355.966C834.793 355.204 835.651 354.823 836.725 354.823C837.732 354.823 838.528 355.155 839.114 355.82C839.7 356.479 839.993 357.351 839.993 358.435V359.205H834.461C834.486 360.147 834.723 360.863 835.172 361.351C835.626 361.84 836.264 362.084 837.084 362.084C837.949 362.084 838.804 361.903 839.649 361.542V362.626C839.219 362.812 838.811 362.944 838.425 363.022C838.044 363.105 837.583 363.147 837.04 363.147ZM836.711 355.842C836.066 355.842 835.551 356.052 835.165 356.472C834.784 356.892 834.559 357.473 834.491 358.216H838.689C838.689 357.449 838.518 356.862 838.176 356.457C837.834 356.047 837.346 355.842 836.711 355.842ZM843.457 363L840.409 354.97H841.714L843.443 359.732C843.833 360.846 844.063 361.569 844.131 361.901H844.19C844.244 361.642 844.412 361.107 844.696 360.296C844.984 359.481 845.626 357.705 846.623 354.97H847.927L844.879 363H843.457ZM855.772 358.978C855.772 360.287 855.443 361.31 854.783 362.047C854.124 362.78 853.213 363.147 852.05 363.147C851.332 363.147 850.695 362.978 850.138 362.641C849.581 362.304 849.151 361.82 848.848 361.19C848.546 360.56 848.394 359.823 848.394 358.978C848.394 357.668 848.721 356.65 849.376 355.922C850.031 355.189 850.939 354.823 852.102 354.823C853.225 354.823 854.117 355.197 854.776 355.944C855.44 356.692 855.772 357.703 855.772 358.978ZM849.654 358.978C849.654 360.003 849.86 360.785 850.27 361.322C850.68 361.859 851.283 362.128 852.08 362.128C852.876 362.128 853.479 361.862 853.889 361.329C854.305 360.792 854.512 360.008 854.512 358.978C854.512 357.957 854.305 357.182 853.889 356.655C853.479 356.122 852.871 355.856 852.065 355.856C851.269 355.856 850.668 356.118 850.263 356.64C849.857 357.163 849.654 357.942 849.654 358.978ZM861.273 363.147C860.751 363.147 860.272 363.051 859.837 362.861C859.408 362.665 859.046 362.367 858.753 361.967H858.665C858.724 362.436 858.753 362.88 858.753 363.3V366.605H857.537V354.97H858.526L858.694 356.069H858.753C859.066 355.629 859.43 355.312 859.845 355.116C860.26 354.921 860.736 354.823 861.273 354.823C862.338 354.823 863.159 355.187 863.735 355.915C864.317 356.643 864.607 357.664 864.607 358.978C864.607 360.296 864.312 361.322 863.721 362.055C863.135 362.783 862.319 363.147 861.273 363.147ZM861.098 355.856C860.277 355.856 859.684 356.083 859.317 356.538C858.951 356.992 858.763 357.715 858.753 358.706V358.978C858.753 360.106 858.941 360.914 859.317 361.403C859.693 361.886 860.297 362.128 861.127 362.128C861.821 362.128 862.363 361.847 862.754 361.285C863.149 360.724 863.347 359.95 863.347 358.963C863.347 357.962 863.149 357.195 862.754 356.662C862.363 356.125 861.811 355.856 861.098 355.856ZM870.431 352.288L866.438 363H865.221L869.214 352.288H870.431ZM874.093 362.143C874.308 362.143 874.515 362.128 874.715 362.099C874.916 362.065 875.075 362.03 875.192 361.996V362.927C875.06 362.99 874.864 363.042 874.606 363.081C874.352 363.125 874.122 363.147 873.917 363.147C872.364 363.147 871.587 362.328 871.587 360.692V355.915H870.437V355.329L871.587 354.823L872.1 353.109H872.803V354.97H875.133V355.915H872.803V360.641C872.803 361.124 872.918 361.496 873.148 361.754C873.377 362.013 873.692 362.143 874.093 362.143ZM879.821 363.147C878.634 363.147 877.696 362.785 877.007 362.062C876.323 361.339 875.982 360.335 875.982 359.051C875.982 357.756 876.299 356.728 876.934 355.966C877.574 355.204 878.431 354.823 879.506 354.823C880.512 354.823 881.308 355.155 881.894 355.82C882.481 356.479 882.774 357.351 882.774 358.435V359.205H877.242C877.266 360.147 877.503 360.863 877.953 361.351C878.407 361.84 879.044 362.084 879.865 362.084C880.729 362.084 881.584 361.903 882.429 361.542V362.626C881.999 362.812 881.592 362.944 881.206 363.022C880.825 363.105 880.363 363.147 879.821 363.147ZM879.491 355.842C878.846 355.842 878.331 356.052 877.945 356.472C877.564 356.892 877.339 357.473 877.271 358.216H881.469C881.469 357.449 881.298 356.862 880.957 356.457C880.615 356.047 880.126 355.842 879.491 355.842ZM889.659 360.809C889.659 361.557 889.381 362.133 888.824 362.538C888.267 362.944 887.486 363.147 886.48 363.147C885.415 363.147 884.584 362.978 883.988 362.641V361.513C884.374 361.708 884.787 361.862 885.227 361.974C885.671 362.087 886.099 362.143 886.509 362.143C887.144 362.143 887.632 362.043 887.974 361.842C888.316 361.637 888.487 361.327 888.487 360.912C888.487 360.599 888.35 360.333 888.077 360.113C887.808 359.888 887.281 359.625 886.494 359.322C885.747 359.043 885.214 358.802 884.897 358.597C884.584 358.386 884.35 358.15 884.194 357.886C884.042 357.622 883.966 357.307 883.966 356.941C883.966 356.286 884.233 355.771 884.765 355.395C885.298 355.014 886.028 354.823 886.956 354.823C887.82 354.823 888.665 354.999 889.491 355.351L889.059 356.34C888.253 356.008 887.522 355.842 886.868 355.842C886.292 355.842 885.857 355.932 885.564 356.113C885.271 356.293 885.124 356.543 885.124 356.86C885.124 357.075 885.178 357.258 885.285 357.41C885.398 357.561 885.576 357.705 885.82 357.842C886.064 357.979 886.533 358.176 887.227 358.435C888.179 358.782 888.822 359.131 889.154 359.483C889.491 359.835 889.659 360.277 889.659 360.809ZM893.864 362.143C894.079 362.143 894.286 362.128 894.486 362.099C894.687 362.065 894.845 362.03 894.963 361.996V362.927C894.831 362.99 894.635 363.042 894.377 363.081C894.123 363.125 893.893 363.147 893.688 363.147C892.135 363.147 891.358 362.328 891.358 360.692V355.915H890.208V355.329L891.358 354.823L891.871 353.109H892.574V354.97H894.904V355.915H892.574V360.641C892.574 361.124 892.689 361.496 892.919 361.754C893.148 362.013 893.463 362.143 893.864 362.143ZM897.416 363H896.2V354.97H897.416V363ZM896.097 352.794C896.097 352.515 896.165 352.312 896.302 352.185C896.439 352.054 896.61 351.988 896.815 351.988C897.01 351.988 897.179 352.054 897.321 352.185C897.462 352.317 897.533 352.52 897.533 352.794C897.533 353.067 897.462 353.272 897.321 353.409C897.179 353.541 897.01 353.607 896.815 353.607C896.61 353.607 896.439 353.541 896.302 353.409C896.165 353.272 896.097 353.067 896.097 352.794ZM905.115 363V357.805C905.115 357.151 904.966 356.662 904.668 356.34C904.37 356.017 903.904 355.856 903.269 355.856C902.428 355.856 901.813 356.083 901.422 356.538C901.031 356.992 900.836 357.742 900.836 358.787V363H899.62V354.97H900.609L900.807 356.069H900.865C901.114 355.673 901.464 355.368 901.913 355.153C902.362 354.933 902.863 354.823 903.415 354.823C904.382 354.823 905.11 355.058 905.599 355.527C906.087 355.991 906.331 356.735 906.331 357.761V363H905.115ZM915.034 354.97V355.739L913.547 355.915C913.684 356.086 913.806 356.311 913.913 356.589C914.021 356.862 914.074 357.173 914.074 357.519C914.074 358.306 913.806 358.934 913.268 359.402C912.731 359.871 911.993 360.106 911.056 360.106C910.816 360.106 910.592 360.086 910.382 360.047C909.864 360.321 909.605 360.665 909.605 361.08C909.605 361.3 909.695 361.464 909.876 361.571C910.057 361.674 910.367 361.725 910.806 361.725H912.228C913.097 361.725 913.764 361.908 914.228 362.275C914.697 362.641 914.932 363.173 914.932 363.872C914.932 364.761 914.575 365.437 913.862 365.901C913.149 366.37 912.108 366.605 910.741 366.605C909.69 366.605 908.88 366.409 908.308 366.019C907.741 365.628 907.458 365.076 907.458 364.363C907.458 363.874 907.614 363.452 907.927 363.095C908.24 362.739 908.679 362.497 909.246 362.37C909.041 362.277 908.867 362.133 908.726 361.938C908.589 361.742 908.52 361.515 908.52 361.256C908.52 360.963 908.599 360.707 908.755 360.487C908.911 360.267 909.158 360.055 909.495 359.849C909.08 359.678 908.74 359.388 908.477 358.978C908.218 358.567 908.088 358.098 908.088 357.571C908.088 356.692 908.352 356.015 908.88 355.541C909.407 355.062 910.154 354.823 911.122 354.823C911.542 354.823 911.92 354.872 912.257 354.97H915.034ZM908.63 364.348C908.63 364.783 908.814 365.113 909.18 365.337C909.546 365.562 910.071 365.674 910.755 365.674C911.776 365.674 912.531 365.52 913.019 365.213C913.513 364.91 913.759 364.497 913.759 363.974C913.759 363.54 913.625 363.237 913.356 363.066C913.088 362.9 912.582 362.817 911.84 362.817H910.382C909.83 362.817 909.4 362.949 909.092 363.212C908.784 363.476 908.63 363.855 908.63 364.348ZM909.29 357.541C909.29 358.103 909.449 358.528 909.766 358.816C910.084 359.105 910.526 359.249 911.092 359.249C912.279 359.249 912.873 358.672 912.873 357.519C912.873 356.313 912.272 355.71 911.07 355.71C910.499 355.71 910.059 355.864 909.751 356.171C909.444 356.479 909.29 356.936 909.29 357.541Z" fill="#4DA1F4"/>
<path d="M775.259 376.383H774.669V371.833H773.062V371.309H776.866V371.833H775.259V376.383ZM779.972 376.383V373.922C779.972 373.612 779.901 373.381 779.76 373.228C779.619 373.075 779.398 372.999 779.097 372.999C778.697 372.999 778.404 373.108 778.219 373.325C778.036 373.543 777.945 373.899 777.945 374.394V376.383H777.369V370.982H777.945V372.617C777.945 372.814 777.936 372.977 777.917 373.107H777.952C778.065 372.924 778.226 372.78 778.434 372.676C778.645 372.57 778.884 372.517 779.153 372.517C779.618 372.517 779.966 372.628 780.197 372.85C780.431 373.069 780.548 373.42 780.548 373.901V376.383H779.972ZM783.164 376.452C782.602 376.452 782.158 376.281 781.831 375.939C781.507 375.596 781.346 375.121 781.346 374.512C781.346 373.899 781.496 373.412 781.797 373.051C782.1 372.69 782.506 372.51 783.015 372.51C783.492 372.51 783.869 372.667 784.146 372.982C784.424 373.294 784.563 373.707 784.563 374.221V374.585H781.942C781.954 375.032 782.066 375.371 782.279 375.602C782.494 375.833 782.796 375.949 783.185 375.949C783.595 375.949 783.999 375.863 784.4 375.692V376.206C784.196 376.294 784.003 376.356 783.82 376.393C783.64 376.433 783.421 376.452 783.164 376.452ZM783.008 372.992C782.703 372.992 782.458 373.091 782.276 373.29C782.095 373.489 781.989 373.765 781.956 374.116H783.945C783.945 373.753 783.864 373.476 783.702 373.284C783.54 373.089 783.309 372.992 783.008 372.992ZM788.81 376.452C788.562 376.452 788.335 376.407 788.129 376.317C787.926 376.224 787.754 376.083 787.616 375.893H787.574C787.602 376.116 787.616 376.326 787.616 376.525V378.09H787.039V372.579H787.508L787.588 373.1H787.616C787.764 372.891 787.936 372.741 788.133 372.648C788.329 372.556 788.555 372.51 788.81 372.51C789.314 372.51 789.703 372.682 789.976 373.027C790.251 373.371 790.389 373.855 790.389 374.477C790.389 375.102 790.249 375.588 789.969 375.935C789.691 376.28 789.305 376.452 788.81 376.452ZM788.726 372.999C788.338 372.999 788.056 373.107 787.883 373.322C787.709 373.537 787.62 373.879 787.616 374.349V374.477C787.616 375.012 787.705 375.395 787.883 375.626C788.061 375.855 788.347 375.97 788.74 375.97C789.069 375.97 789.325 375.837 789.511 375.571C789.698 375.305 789.792 374.938 789.792 374.47C789.792 373.996 789.698 373.633 789.511 373.381C789.325 373.126 789.064 372.999 788.726 372.999ZM792.956 372.51C793.125 372.51 793.277 372.523 793.411 372.551L793.331 373.086C793.174 373.051 793.035 373.034 792.915 373.034C792.607 373.034 792.343 373.159 792.123 373.408C791.906 373.658 791.797 373.97 791.797 374.342V376.383H791.221V372.579H791.696L791.762 373.284H791.79C791.931 373.036 792.101 372.845 792.3 372.711C792.499 372.577 792.718 372.51 792.956 372.51ZM797.228 374.477C797.228 375.098 797.072 375.582 796.759 375.932C796.447 376.279 796.016 376.452 795.465 376.452C795.125 376.452 794.823 376.372 794.559 376.213C794.295 376.053 794.092 375.824 793.948 375.526C793.805 375.227 793.733 374.878 793.733 374.477C793.733 373.857 793.888 373.375 794.198 373.03C794.508 372.683 794.938 372.51 795.489 372.51C796.021 372.51 796.444 372.687 796.756 373.041C797.071 373.395 797.228 373.874 797.228 374.477ZM794.33 374.477C794.33 374.963 794.427 375.334 794.621 375.588C794.816 375.843 795.102 375.97 795.479 375.97C795.856 375.97 796.142 375.844 796.336 375.592C796.533 375.337 796.631 374.966 796.631 374.477C796.631 373.994 796.533 373.627 796.336 373.377C796.142 373.125 795.854 372.999 795.472 372.999C795.095 372.999 794.81 373.123 794.618 373.37C794.426 373.618 794.33 373.987 794.33 374.477ZM799.584 376.452C799.033 376.452 798.606 376.283 798.303 375.946C798.002 375.605 797.852 375.125 797.852 374.505C797.852 373.869 798.005 373.377 798.31 373.03C798.618 372.683 799.055 372.51 799.622 372.51C799.805 372.51 799.988 372.529 800.17 372.569C800.353 372.608 800.497 372.654 800.601 372.707L800.424 373.197C800.296 373.146 800.158 373.104 800.007 373.072C799.857 373.037 799.724 373.02 799.608 373.02C798.835 373.02 798.449 373.513 798.449 374.498C798.449 374.966 798.543 375.324 798.73 375.574C798.92 375.824 799.2 375.949 799.57 375.949C799.887 375.949 800.212 375.881 800.545 375.744V376.254C800.291 376.386 799.97 376.452 799.584 376.452ZM802.88 376.452C802.318 376.452 801.874 376.281 801.548 375.939C801.224 375.596 801.062 375.121 801.062 374.512C801.062 373.899 801.212 373.412 801.513 373.051C801.816 372.69 802.222 372.51 802.731 372.51C803.208 372.51 803.585 372.667 803.862 372.982C804.14 373.294 804.279 373.707 804.279 374.221V374.585H801.659C801.67 375.032 801.782 375.371 801.995 375.602C802.21 375.833 802.512 375.949 802.901 375.949C803.311 375.949 803.716 375.863 804.116 375.692V376.206C803.912 376.294 803.719 376.356 803.536 376.393C803.356 376.433 803.137 376.452 802.88 376.452ZM802.724 372.992C802.419 372.992 802.175 373.091 801.992 373.29C801.811 373.489 801.705 373.765 801.672 374.116H803.661C803.661 373.753 803.58 373.476 803.418 373.284C803.256 373.089 803.025 372.992 802.724 372.992ZM807.541 375.345C807.541 375.699 807.409 375.972 807.145 376.164C806.881 376.356 806.511 376.452 806.034 376.452C805.53 376.452 805.137 376.372 804.854 376.213V375.678C805.037 375.771 805.233 375.844 805.441 375.897C805.651 375.95 805.854 375.977 806.048 375.977C806.349 375.977 806.58 375.929 806.742 375.834C806.904 375.737 806.985 375.59 806.985 375.394C806.985 375.246 806.921 375.119 806.791 375.015C806.664 374.909 806.414 374.784 806.041 374.641C805.687 374.509 805.435 374.394 805.285 374.297C805.137 374.197 805.026 374.085 804.952 373.96C804.88 373.835 804.844 373.686 804.844 373.513C804.844 373.203 804.97 372.958 805.222 372.78C805.474 372.6 805.82 372.51 806.26 372.51C806.67 372.51 807.07 372.593 807.461 372.759L807.256 373.228C806.874 373.071 806.528 372.992 806.218 372.992C805.945 372.992 805.739 373.035 805.601 373.12C805.462 373.206 805.392 373.324 805.392 373.474C805.392 373.576 805.418 373.663 805.469 373.735C805.522 373.806 805.606 373.875 805.722 373.939C805.838 374.004 806.06 374.098 806.388 374.221C806.84 374.385 807.144 374.55 807.301 374.717C807.461 374.883 807.541 375.093 807.541 375.345ZM810.757 375.345C810.757 375.699 810.625 375.972 810.362 376.164C810.098 376.356 809.728 376.452 809.251 376.452C808.747 376.452 808.353 376.372 808.071 376.213V375.678C808.254 375.771 808.449 375.844 808.657 375.897C808.868 375.95 809.07 375.977 809.265 375.977C809.566 375.977 809.797 375.929 809.959 375.834C810.121 375.737 810.202 375.59 810.202 375.394C810.202 375.246 810.137 375.119 810.008 375.015C809.88 374.909 809.63 374.784 809.258 374.641C808.904 374.509 808.652 374.394 808.501 374.297C808.353 374.197 808.242 374.085 808.168 373.96C808.096 373.835 808.061 373.686 808.061 373.513C808.061 373.203 808.187 372.958 808.439 372.78C808.691 372.6 809.037 372.51 809.477 372.51C809.886 372.51 810.286 372.593 810.677 372.759L810.473 373.228C810.091 373.071 809.745 372.992 809.435 372.992C809.162 372.992 808.956 373.035 808.817 373.12C808.678 373.206 808.609 373.324 808.609 373.474C808.609 373.576 808.634 373.663 808.685 373.735C808.738 373.806 808.823 373.875 808.939 373.939C809.054 374.004 809.276 374.098 809.605 374.221C810.056 374.385 810.36 374.55 810.518 374.717C810.677 374.883 810.757 375.093 810.757 375.345ZM813.127 376.452C812.565 376.452 812.121 376.281 811.794 375.939C811.47 375.596 811.308 375.121 811.308 374.512C811.308 373.899 811.459 373.412 811.76 373.051C812.063 372.69 812.469 372.51 812.978 372.51C813.454 372.51 813.832 372.667 814.109 372.982C814.387 373.294 814.526 373.707 814.526 374.221V374.585H811.905C811.917 375.032 812.029 375.371 812.242 375.602C812.457 375.833 812.759 375.949 813.148 375.949C813.557 375.949 813.962 375.863 814.363 375.692V376.206C814.159 376.294 813.966 376.356 813.783 376.393C813.602 376.433 813.384 376.452 813.127 376.452ZM812.971 372.992C812.665 372.992 812.421 373.091 812.239 373.29C812.058 373.489 811.952 373.765 811.919 374.116H813.908C813.908 373.753 813.827 373.476 813.665 373.284C813.503 373.089 813.272 372.992 812.971 372.992ZM817.787 375.345C817.787 375.699 817.656 375.972 817.392 376.164C817.128 376.356 816.758 376.452 816.281 376.452C815.777 376.452 815.383 376.372 815.101 376.213V375.678C815.284 375.771 815.479 375.844 815.688 375.897C815.898 375.95 816.101 375.977 816.295 375.977C816.596 375.977 816.827 375.929 816.989 375.834C817.151 375.737 817.232 375.59 817.232 375.394C817.232 375.246 817.167 375.119 817.038 375.015C816.91 374.909 816.661 374.784 816.288 374.641C815.934 374.509 815.682 374.394 815.531 374.297C815.383 374.197 815.272 374.085 815.198 373.96C815.127 373.835 815.091 373.686 815.091 373.513C815.091 373.203 815.217 372.958 815.469 372.78C815.721 372.6 816.067 372.51 816.507 372.51C816.916 372.51 817.317 372.593 817.708 372.759L817.503 373.228C817.121 373.071 816.775 372.992 816.465 372.992C816.192 372.992 815.986 373.035 815.847 373.12C815.708 373.206 815.639 373.324 815.639 373.474C815.639 373.576 815.665 373.663 815.715 373.735C815.769 373.806 815.853 373.875 815.969 373.939C816.084 374.004 816.307 374.098 816.635 374.221C817.086 374.385 817.391 374.55 817.548 374.717C817.708 374.883 817.787 375.093 817.787 375.345ZM820.795 376.383H820.219V372.579H820.795V376.383ZM820.17 371.548C820.17 371.416 820.203 371.32 820.268 371.26C820.332 371.198 820.413 371.166 820.51 371.166C820.603 371.166 820.683 371.198 820.75 371.26C820.817 371.323 820.851 371.419 820.851 371.548C820.851 371.678 820.817 371.775 820.75 371.84C820.683 371.902 820.603 371.933 820.51 371.933C820.413 371.933 820.332 371.902 820.268 371.84C820.203 371.775 820.17 371.678 820.17 371.548ZM824.442 376.383V373.922C824.442 373.612 824.371 373.381 824.23 373.228C824.089 373.075 823.868 372.999 823.567 372.999C823.169 372.999 822.878 373.107 822.693 373.322C822.508 373.537 822.415 373.892 822.415 374.387V376.383H821.839V372.579H822.308L822.401 373.1H822.429C822.547 372.912 822.712 372.768 822.925 372.666C823.138 372.562 823.375 372.51 823.637 372.51C824.095 372.51 824.44 372.621 824.671 372.843C824.902 373.063 825.018 373.415 825.018 373.901V376.383H824.442ZM828.925 375.977C829.027 375.977 829.125 375.97 829.22 375.956C829.315 375.94 829.39 375.924 829.445 375.907V376.348C829.383 376.378 829.29 376.402 829.168 376.421C829.047 376.442 828.939 376.452 828.841 376.452C828.106 376.452 827.738 376.065 827.738 375.29V373.027H827.193V372.749L827.738 372.51L827.981 371.697H828.314V372.579H829.418V373.027H828.314V375.265C828.314 375.494 828.368 375.67 828.477 375.793C828.586 375.915 828.735 375.977 828.925 375.977ZM832.634 376.383V373.922C832.634 373.612 832.564 373.381 832.422 373.228C832.281 373.075 832.06 372.999 831.76 372.999C831.359 372.999 831.067 373.108 830.881 373.325C830.699 373.543 830.607 373.899 830.607 374.394V376.383H830.031V370.982H830.607V372.617C830.607 372.814 830.598 372.977 830.58 373.107H830.614C830.728 372.924 830.888 372.78 831.097 372.676C831.307 372.57 831.547 372.517 831.815 372.517C832.28 372.517 832.628 372.628 832.86 372.85C833.093 373.069 833.21 373.42 833.21 373.901V376.383H832.634ZM835.826 376.452C835.264 376.452 834.82 376.281 834.494 375.939C834.17 375.596 834.008 375.121 834.008 374.512C834.008 373.899 834.158 373.412 834.459 373.051C834.762 372.69 835.168 372.51 835.677 372.51C836.154 372.51 836.531 372.667 836.809 372.982C837.086 373.294 837.225 373.707 837.225 374.221V374.585H834.605C834.616 375.032 834.729 375.371 834.941 375.602C835.157 375.833 835.459 375.949 835.847 375.949C836.257 375.949 836.662 375.863 837.062 375.692V376.206C836.858 376.294 836.665 376.356 836.482 376.393C836.302 376.433 836.083 376.452 835.826 376.452ZM835.67 372.992C835.365 372.992 835.121 373.091 834.938 373.29C834.757 373.489 834.651 373.765 834.619 374.116H836.607C836.607 373.753 836.526 373.476 836.364 373.284C836.202 373.089 835.971 372.992 835.67 372.992ZM842.985 374.477C842.985 375.098 842.829 375.582 842.516 375.932C842.204 376.279 841.773 376.452 841.222 376.452C840.882 376.452 840.58 376.372 840.316 376.213C840.052 376.053 839.849 375.824 839.705 375.526C839.562 375.227 839.49 374.878 839.49 374.477C839.49 373.857 839.645 373.375 839.955 373.03C840.265 372.683 840.696 372.51 841.246 372.51C841.778 372.51 842.201 372.687 842.513 373.041C842.828 373.395 842.985 373.874 842.985 374.477ZM840.087 374.477C840.087 374.963 840.184 375.334 840.379 375.588C840.573 375.843 840.859 375.97 841.236 375.97C841.613 375.97 841.899 375.844 842.093 375.592C842.29 375.337 842.388 374.966 842.388 374.477C842.388 373.994 842.29 373.627 842.093 373.377C841.899 373.125 841.611 372.999 841.229 372.999C840.852 372.999 840.567 373.123 840.375 373.37C840.183 373.618 840.087 373.987 840.087 374.477ZM844.362 372.579V375.047C844.362 375.357 844.433 375.588 844.574 375.741C844.715 375.893 844.936 375.97 845.237 375.97C845.635 375.97 845.925 375.861 846.108 375.644C846.293 375.426 846.386 375.071 846.386 374.578V372.579H846.962V376.383H846.486L846.403 375.873H846.372C846.254 376.06 846.089 376.203 845.879 376.303C845.671 376.402 845.432 376.452 845.164 376.452C844.701 376.452 844.354 376.342 844.123 376.123C843.894 375.903 843.779 375.551 843.779 375.067V372.579H844.362ZM849.238 375.977C849.34 375.977 849.438 375.97 849.533 375.956C849.628 375.94 849.703 375.924 849.758 375.907V376.348C849.696 376.378 849.603 376.402 849.481 376.421C849.36 376.442 849.252 376.452 849.154 376.452C848.419 376.452 848.051 376.065 848.051 375.29V373.027H847.506V372.749L848.051 372.51L848.294 371.697H848.627V372.579H849.731V373.027H848.627V375.265C848.627 375.494 848.681 375.67 848.79 375.793C848.899 375.915 849.048 375.977 849.238 375.977ZM851.864 376.452C851.314 376.452 850.887 376.283 850.584 375.946C850.283 375.605 850.132 375.125 850.132 374.505C850.132 373.869 850.285 373.377 850.591 373.03C850.898 372.683 851.336 372.51 851.903 372.51C852.085 372.51 852.268 372.529 852.451 372.569C852.634 372.608 852.777 372.654 852.881 372.707L852.704 373.197C852.577 373.146 852.438 373.104 852.288 373.072C852.137 373.037 852.004 373.02 851.889 373.02C851.116 373.02 850.729 373.513 850.729 374.498C850.729 374.966 850.823 375.324 851.011 375.574C851.2 375.824 851.48 375.949 851.85 375.949C852.167 375.949 852.493 375.881 852.826 375.744V376.254C852.571 376.386 852.251 376.452 851.864 376.452ZM856.837 374.477C856.837 375.098 856.681 375.582 856.369 375.932C856.056 376.279 855.625 376.452 855.074 376.452C854.734 376.452 854.432 376.372 854.168 376.213C853.904 376.053 853.701 375.824 853.557 375.526C853.414 375.227 853.342 374.878 853.342 374.477C853.342 373.857 853.497 373.375 853.807 373.03C854.117 372.683 854.548 372.51 855.098 372.51C855.63 372.51 856.053 372.687 856.365 373.041C856.68 373.395 856.837 373.874 856.837 374.477ZM853.939 374.477C853.939 374.963 854.036 375.334 854.231 375.588C854.425 375.843 854.711 375.97 855.088 375.97C855.465 375.97 855.751 375.844 855.945 375.592C856.142 375.337 856.24 374.966 856.24 374.477C856.24 373.994 856.142 373.627 855.945 373.377C855.751 373.125 855.463 372.999 855.081 372.999C854.704 372.999 854.419 373.123 854.227 373.37C854.035 373.618 853.939 373.987 853.939 374.477ZM862.521 376.383V373.908C862.521 373.605 862.457 373.378 862.327 373.228C862.197 373.075 861.996 372.999 861.723 372.999C861.364 372.999 861.1 373.102 860.928 373.308C860.757 373.514 860.671 373.831 860.671 374.259V376.383H860.095V373.908C860.095 373.605 860.031 373.378 859.901 373.228C859.771 373.075 859.569 372.999 859.294 372.999C858.933 372.999 858.668 373.108 858.499 373.325C858.332 373.54 858.249 373.894 858.249 374.387V376.383H857.673V372.579H858.141L858.235 373.1H858.263C858.372 372.914 858.524 372.77 858.721 372.666C858.92 372.562 859.142 372.51 859.387 372.51C859.982 372.51 860.371 372.725 860.553 373.155H860.581C860.695 372.956 860.859 372.799 861.074 372.683C861.289 372.567 861.535 372.51 861.81 372.51C862.24 372.51 862.562 372.621 862.775 372.843C862.99 373.063 863.097 373.415 863.097 373.901V376.383H862.521ZM865.717 376.452C865.155 376.452 864.711 376.281 864.384 375.939C864.06 375.596 863.898 375.121 863.898 374.512C863.898 373.899 864.049 373.412 864.35 373.051C864.653 372.69 865.059 372.51 865.568 372.51C866.045 372.51 866.422 372.667 866.699 372.982C866.977 373.294 867.116 373.707 867.116 374.221V374.585H864.495C864.507 375.032 864.619 375.371 864.832 375.602C865.047 375.833 865.349 375.949 865.738 375.949C866.147 375.949 866.552 375.863 866.953 375.692V376.206C866.749 376.294 866.556 376.356 866.373 376.393C866.193 376.433 865.974 376.452 865.717 376.452ZM865.561 372.992C865.256 372.992 865.011 373.091 864.829 373.29C864.648 373.489 864.542 373.765 864.509 374.116H866.498C866.498 373.753 866.417 373.476 866.255 373.284C866.093 373.089 865.862 372.992 865.561 372.992ZM872.876 374.477C872.876 375.098 872.719 375.582 872.407 375.932C872.095 376.279 871.663 376.452 871.113 376.452C870.772 376.452 870.471 376.372 870.207 376.213C869.943 376.053 869.739 375.824 869.596 375.526C869.452 375.227 869.381 374.878 869.381 374.477C869.381 373.857 869.536 373.375 869.846 373.03C870.156 372.683 870.586 372.51 871.137 372.51C871.669 372.51 872.091 372.687 872.404 373.041C872.718 373.395 872.876 373.874 872.876 374.477ZM869.978 374.477C869.978 374.963 870.075 375.334 870.269 375.588C870.464 375.843 870.749 375.97 871.126 375.97C871.504 375.97 871.789 375.844 871.984 375.592C872.18 375.337 872.279 374.966 872.279 374.477C872.279 373.994 872.18 373.627 871.984 373.377C871.789 373.125 871.501 372.999 871.12 372.999C870.742 372.999 870.458 373.123 870.266 373.37C870.074 373.618 869.978 373.987 869.978 374.477ZM875.426 373.027H874.458V376.383H873.881V373.027H873.201V372.766L873.881 372.558V372.346C873.881 371.412 874.29 370.944 875.107 370.944C875.308 370.944 875.544 370.985 875.815 371.066L875.665 371.527C875.443 371.456 875.254 371.42 875.096 371.42C874.879 371.42 874.718 371.493 874.614 371.638C874.51 371.782 874.458 372.013 874.458 372.333V372.579H875.426V373.027ZM878.84 375.977C878.941 375.977 879.04 375.97 879.135 375.956C879.23 375.94 879.305 375.924 879.36 375.907V376.348C879.298 376.378 879.205 376.402 879.083 376.421C878.962 376.442 878.854 376.452 878.756 376.452C878.021 376.452 877.653 376.065 877.653 375.29V373.027H877.108V372.749L877.653 372.51L877.896 371.697H878.229V372.579H879.332V373.027H878.229V375.265C878.229 375.494 878.283 375.67 878.392 375.793C878.501 375.915 878.65 375.977 878.84 375.977ZM882.549 376.383V373.922C882.549 373.612 882.479 373.381 882.337 373.228C882.196 373.075 881.975 372.999 881.674 372.999C881.274 372.999 880.982 373.108 880.796 373.325C880.614 373.543 880.522 373.899 880.522 374.394V376.383H879.946V370.982H880.522V372.617C880.522 372.814 880.513 372.977 880.494 373.107H880.529C880.643 372.924 880.803 372.78 881.012 372.676C881.222 372.57 881.462 372.517 881.73 372.517C882.195 372.517 882.543 372.628 882.775 372.85C883.008 373.069 883.125 373.42 883.125 373.901V376.383H882.549ZM885.741 376.452C885.179 376.452 884.735 376.281 884.409 375.939C884.085 375.596 883.923 375.121 883.923 374.512C883.923 373.899 884.073 373.412 884.374 373.051C884.677 372.69 885.083 372.51 885.592 372.51C886.069 372.51 886.446 372.667 886.724 372.982C887.001 373.294 887.14 373.707 887.14 374.221V374.585H884.52C884.531 375.032 884.644 375.371 884.856 375.602C885.072 375.833 885.374 375.949 885.762 375.949C886.172 375.949 886.577 375.863 886.977 375.692V376.206C886.773 376.294 886.58 376.356 886.397 376.393C886.217 376.433 885.998 376.452 885.741 376.452ZM885.585 372.992C885.28 372.992 885.036 373.091 884.853 373.29C884.672 373.489 884.566 373.765 884.534 374.116H886.522C886.522 373.753 886.441 373.476 886.279 373.284C886.117 373.089 885.886 372.992 885.585 372.992ZM891.387 376.452C891.139 376.452 890.912 376.407 890.707 376.317C890.503 376.224 890.332 376.083 890.193 375.893H890.151C890.179 376.116 890.193 376.326 890.193 376.525V378.09H889.617V372.579H890.085L890.165 373.1H890.193C890.341 372.891 890.513 372.741 890.71 372.648C890.907 372.556 891.132 372.51 891.387 372.51C891.891 372.51 892.28 372.682 892.553 373.027C892.828 373.371 892.966 373.855 892.966 374.477C892.966 375.102 892.826 375.588 892.546 375.935C892.268 376.28 891.882 376.452 891.387 376.452ZM891.303 372.999C890.915 372.999 890.634 373.107 890.46 373.322C890.287 373.537 890.197 373.879 890.193 374.349V374.477C890.193 375.012 890.282 375.395 890.46 375.626C890.638 375.855 890.924 375.97 891.317 375.97C891.646 375.97 891.903 375.837 892.088 375.571C892.275 375.305 892.369 374.938 892.369 374.47C892.369 373.996 892.275 373.633 892.088 373.381C891.903 373.126 891.641 372.999 891.303 372.999ZM895.533 372.51C895.702 372.51 895.854 372.523 895.988 372.551L895.908 373.086C895.751 373.051 895.612 373.034 895.492 373.034C895.184 373.034 894.92 373.159 894.701 373.408C894.483 373.658 894.374 373.97 894.374 374.342V376.383H893.798V372.579H894.274L894.34 373.284H894.367C894.508 373.036 894.679 372.845 894.878 372.711C895.077 372.577 895.295 372.51 895.533 372.51ZM899.805 374.477C899.805 375.098 899.649 375.582 899.337 375.932C899.024 376.279 898.593 376.452 898.042 376.452C897.702 376.452 897.4 376.372 897.136 376.213C896.872 376.053 896.669 375.824 896.525 375.526C896.382 375.227 896.31 374.878 896.31 374.477C896.31 373.857 896.465 373.375 896.775 373.03C897.085 372.683 897.516 372.51 898.066 372.51C898.599 372.51 899.021 372.687 899.333 373.041C899.648 373.395 899.805 373.874 899.805 374.477ZM896.907 374.477C896.907 374.963 897.004 375.334 897.199 375.588C897.393 375.843 897.679 375.97 898.056 375.97C898.433 375.97 898.719 375.844 898.913 375.592C899.11 375.337 899.208 374.966 899.208 374.477C899.208 373.994 899.11 373.627 898.913 373.377C898.719 373.125 898.431 372.999 898.049 372.999C897.672 372.999 897.387 373.123 897.195 373.37C897.003 373.618 896.907 373.987 896.907 374.477ZM900.179 378.09C899.96 378.09 899.781 378.061 899.645 378.004V377.535C899.804 377.581 899.962 377.604 900.117 377.604C900.297 377.604 900.429 377.555 900.512 377.455C900.598 377.358 900.641 377.209 900.641 377.008V372.579H901.217V376.966C901.217 377.716 900.871 378.09 900.179 378.09ZM900.592 371.548C900.592 371.416 900.625 371.32 900.689 371.26C900.754 371.198 900.835 371.166 900.932 371.166C901.025 371.166 901.105 371.198 901.172 371.26C901.239 371.323 901.273 371.419 901.273 371.548C901.273 371.678 901.239 371.775 901.172 371.84C901.105 371.902 901.025 371.933 900.932 371.933C900.835 371.933 900.754 371.902 900.689 371.84C900.625 371.775 900.592 371.678 900.592 371.548ZM903.868 376.452C903.306 376.452 902.861 376.281 902.535 375.939C902.211 375.596 902.049 375.121 902.049 374.512C902.049 373.899 902.2 373.412 902.5 373.051C902.804 372.69 903.21 372.51 903.719 372.51C904.195 372.51 904.572 372.667 904.85 372.982C905.128 373.294 905.267 373.707 905.267 374.221V374.585H902.646C902.658 375.032 902.77 375.371 902.983 375.602C903.198 375.833 903.5 375.949 903.889 375.949C904.298 375.949 904.703 375.863 905.103 375.692V376.206C904.9 376.294 904.707 376.356 904.524 376.393C904.343 376.433 904.125 376.452 903.868 376.452ZM903.712 372.992C903.406 372.992 903.162 373.091 902.979 373.29C902.799 373.489 902.693 373.765 902.66 374.116H904.649C904.649 373.753 904.568 373.476 904.406 373.284C904.244 373.089 904.013 372.992 903.712 372.992ZM907.595 376.452C907.044 376.452 906.617 376.283 906.314 375.946C906.013 375.605 905.863 375.125 905.863 374.505C905.863 373.869 906.016 373.377 906.321 373.03C906.629 372.683 907.066 372.51 907.633 372.51C907.816 372.51 907.998 372.529 908.181 372.569C908.364 372.608 908.507 372.654 908.612 372.707L908.435 373.197C908.307 373.146 908.169 373.104 908.018 373.072C907.868 373.037 907.735 373.02 907.619 373.02C906.846 373.02 906.46 373.513 906.46 374.498C906.46 374.966 906.554 375.324 906.741 375.574C906.931 375.824 907.211 375.949 907.581 375.949C907.898 375.949 908.223 375.881 908.556 375.744V376.254C908.302 376.386 907.981 376.452 907.595 376.452ZM910.513 375.977C910.615 375.977 910.713 375.97 910.808 375.956C910.903 375.94 910.978 375.924 911.033 375.907V376.348C910.971 376.378 910.878 376.402 910.756 376.421C910.635 376.442 910.527 376.452 910.43 376.452C909.694 376.452 909.326 376.065 909.326 375.29V373.027H908.781V372.749L909.326 372.51L909.569 371.697H909.902V372.579H911.006V373.027H909.902V375.265C909.902 375.494 909.956 375.67 910.065 375.793C910.174 375.915 910.323 375.977 910.513 375.977Z" fill="#B3B3B3"/>
</g>
<rect x="746.5" y="328.5" width="406" height="218" rx="14.5" stroke="#475569"/>
<g filter="url(#filter13_d_160_10180)">
<path d="M658 405L700 423.025L680.123 428L675.294 445L658 405Z" fill="#FE5D26"/>
<path d="M675.196 443.514L658.958 405.955L698.441 422.9L680.001 427.515L679.721 427.585L679.642 427.863L675.196 443.514Z" stroke="white"/>
</g>
<g filter="url(#filter14_d_160_10180)">
<rect x="689" y="438" width="285" height="204" rx="20" fill="#1D1D1F"/>
<rect x="689.5" y="438.5" width="284" height="203" rx="19.5" stroke="#0F2F76"/>
<path d="M725.495 492V475.708H719.677V473.055H734.237V475.708H728.418V492H725.495ZM739.791 492.379C738.437 492.379 737.256 492.099 736.245 491.54C735.235 490.963 734.441 490.16 733.864 489.131C733.304 488.085 733.025 486.876 733.025 485.505V485.18C733.025 483.791 733.304 482.582 733.864 481.553C734.423 480.507 735.199 479.704 736.191 479.145C737.202 478.567 738.365 478.279 739.682 478.279C740.963 478.279 742.082 478.567 743.038 479.145C744.013 479.704 744.77 480.489 745.312 481.499C745.853 482.51 746.123 483.691 746.123 485.045V486.1H735.866C735.902 487.273 736.29 488.211 737.03 488.915C737.788 489.6 738.726 489.943 739.845 489.943C740.891 489.943 741.676 489.709 742.199 489.24C742.741 488.77 743.156 488.229 743.444 487.616L745.745 488.806C745.492 489.312 745.122 489.844 744.635 490.403C744.166 490.963 743.543 491.432 742.768 491.811C741.992 492.189 740.999 492.379 739.791 492.379ZM735.893 483.962H743.282C743.21 482.952 742.849 482.167 742.199 481.608C741.55 481.03 740.702 480.742 739.655 480.742C738.609 480.742 737.752 481.03 737.084 481.608C736.435 482.167 736.038 482.952 735.893 483.962ZM755 492.379C753.719 492.379 752.555 492.108 751.509 491.567C750.48 491.026 749.659 490.241 749.046 489.212C748.451 488.184 748.153 486.948 748.153 485.505V485.153C748.153 483.71 748.451 482.483 749.046 481.472C749.659 480.444 750.48 479.659 751.509 479.118C752.555 478.558 753.719 478.279 755 478.279C756.281 478.279 757.373 478.513 758.275 478.982C759.177 479.451 759.898 480.074 760.44 480.85C760.999 481.626 761.36 482.483 761.522 483.421L758.816 483.989C758.726 483.394 758.536 482.852 758.248 482.365C757.959 481.878 757.553 481.49 757.03 481.202C756.506 480.913 755.848 480.769 755.054 480.769C754.278 480.769 753.575 480.949 752.943 481.31C752.33 481.653 751.843 482.158 751.482 482.825C751.121 483.475 750.94 484.269 750.94 485.207V485.451C750.94 486.389 751.121 487.192 751.482 487.859C751.843 488.527 752.33 489.032 752.943 489.375C753.575 489.718 754.278 489.889 755.054 489.889C756.227 489.889 757.12 489.591 757.733 488.996C758.347 488.382 758.735 487.607 758.897 486.668L761.603 487.291C761.387 488.211 760.999 489.059 760.44 489.835C759.898 490.611 759.177 491.233 758.275 491.702C757.373 492.153 756.281 492.379 755 492.379ZM764.142 492V473.055H766.93V480.552H767.363C767.543 480.209 767.796 479.875 768.12 479.551C768.463 479.226 768.905 478.964 769.446 478.766C770.006 478.549 770.709 478.441 771.557 478.441C772.568 478.441 773.461 478.667 774.237 479.118C775.031 479.569 775.653 480.209 776.104 481.039C776.555 481.851 776.781 482.834 776.781 483.989V492H773.993V484.206C773.993 483.051 773.704 482.203 773.127 481.662C772.55 481.102 771.756 480.823 770.745 480.823C769.591 480.823 768.662 481.202 767.958 481.959C767.272 482.717 766.93 483.818 766.93 485.261V492H764.142ZM792.697 492.379C791.272 492.379 790.009 492.126 788.908 491.621C787.808 491.116 786.942 490.376 786.31 489.402C785.697 488.41 785.39 487.21 785.39 485.802V485.126H788.286V485.802C788.286 487.138 788.683 488.139 789.477 488.806C790.289 489.474 791.362 489.808 792.697 489.808C794.05 489.808 795.07 489.528 795.755 488.969C796.441 488.392 796.784 487.652 796.784 486.75C796.784 486.154 796.622 485.667 796.297 485.288C795.972 484.909 795.512 484.612 794.917 484.395C794.321 484.161 793.608 483.944 792.778 483.746L791.777 483.502C790.568 483.213 789.513 482.862 788.611 482.447C787.727 482.014 787.041 481.445 786.554 480.742C786.067 480.038 785.823 479.136 785.823 478.035C785.823 476.917 786.094 475.96 786.635 475.166C787.194 474.373 787.961 473.759 788.935 473.326C789.91 472.893 791.055 472.677 792.373 472.677C793.69 472.677 794.862 472.902 795.891 473.353C796.937 473.804 797.758 474.472 798.354 475.356C798.949 476.24 799.247 477.35 799.247 478.685V479.659H796.351V478.685C796.351 477.873 796.179 477.214 795.837 476.709C795.512 476.204 795.052 475.834 794.456 475.599C793.861 475.365 793.166 475.248 792.373 475.248C791.218 475.248 790.316 475.491 789.666 475.978C789.035 476.447 788.719 477.106 788.719 477.954C788.719 478.531 788.854 479.009 789.125 479.388C789.414 479.749 789.829 480.047 790.37 480.281C790.911 480.516 791.588 480.723 792.4 480.904L793.401 481.147C794.628 481.418 795.71 481.77 796.649 482.203C797.587 482.618 798.327 483.186 798.868 483.908C799.409 484.63 799.68 485.559 799.68 486.696C799.68 487.832 799.391 488.825 798.814 489.673C798.254 490.521 797.451 491.188 796.405 491.675C795.359 492.144 794.123 492.379 792.697 492.379ZM807.159 492C806.348 492 805.698 491.756 805.211 491.269C804.742 490.782 804.507 490.133 804.507 489.321V481.012H800.827V478.658H804.507V474.246H807.295V478.658H811.273V481.012H807.295V488.834C807.295 489.375 807.547 489.645 808.053 489.645H810.84V492H807.159ZM817.986 492.379C817.029 492.379 816.172 492.217 815.415 491.892C814.675 491.567 814.08 491.089 813.628 490.457C813.195 489.826 812.979 489.059 812.979 488.157C812.979 487.237 813.195 486.479 813.628 485.884C814.08 485.27 814.684 484.81 815.442 484.503C816.218 484.197 817.093 484.043 818.067 484.043H822.126V483.177C822.126 482.401 821.892 481.779 821.423 481.31C820.954 480.841 820.232 480.606 819.258 480.606C818.301 480.606 817.571 480.832 817.066 481.283C816.56 481.734 816.227 482.32 816.064 483.042L813.466 482.203C813.683 481.481 814.025 480.832 814.495 480.254C814.982 479.659 815.622 479.181 816.416 478.82C817.21 478.459 818.166 478.279 819.285 478.279C821.017 478.279 822.379 478.721 823.371 479.605C824.364 480.489 824.86 481.743 824.86 483.367V488.861C824.86 489.402 825.112 489.673 825.618 489.673H826.754V492H824.67C824.039 492 823.525 491.838 823.128 491.513C822.731 491.188 822.532 490.746 822.532 490.187V490.106H822.126C821.982 490.376 821.766 490.692 821.477 491.053C821.188 491.414 820.764 491.729 820.205 492C819.646 492.253 818.906 492.379 817.986 492.379ZM818.392 490.078C819.51 490.078 820.412 489.763 821.098 489.131C821.784 488.482 822.126 487.598 822.126 486.479V486.208H818.229C817.49 486.208 816.894 486.371 816.443 486.696C815.992 487.002 815.767 487.462 815.767 488.076C815.767 488.689 816.001 489.176 816.47 489.537C816.939 489.898 817.58 490.078 818.392 490.078ZM834.669 492.379C833.388 492.379 832.224 492.108 831.177 491.567C830.149 491.026 829.328 490.241 828.715 489.212C828.119 488.184 827.821 486.948 827.821 485.505V485.153C827.821 483.71 828.119 482.483 828.715 481.472C829.328 480.444 830.149 479.659 831.177 479.118C832.224 478.558 833.388 478.279 834.669 478.279C835.95 478.279 837.041 478.513 837.943 478.982C838.845 479.451 839.567 480.074 840.108 480.85C840.668 481.626 841.029 482.483 841.191 483.421L838.485 483.989C838.394 483.394 838.205 482.852 837.916 482.365C837.628 481.878 837.222 481.49 836.698 481.202C836.175 480.913 835.517 480.769 834.723 480.769C833.947 480.769 833.243 480.949 832.612 481.31C831.998 481.653 831.511 482.158 831.15 482.825C830.789 483.475 830.609 484.269 830.609 485.207V485.451C830.609 486.389 830.789 487.192 831.15 487.859C831.511 488.527 831.998 489.032 832.612 489.375C833.243 489.718 833.947 489.889 834.723 489.889C835.895 489.889 836.789 489.591 837.402 488.996C838.015 488.382 838.403 487.607 838.566 486.668L841.272 487.291C841.056 488.211 840.668 489.059 840.108 489.835C839.567 490.611 838.845 491.233 837.943 491.702C837.041 492.153 835.95 492.379 834.669 492.379ZM843.811 492V473.055H846.598V483.854H847.031L852.282 478.658H855.989L849.25 485.126L856.206 492H852.525L847.031 486.452H846.598V492H843.811Z" fill="#949494"/>
<path d="M752.71 557.066C752.285 556.919 751.844 556.781 751.39 556.65C751.465 556.345 751.533 556.045 751.594 555.749C752.593 550.9 751.94 546.993 749.71 545.706C747.571 544.473 744.073 545.759 740.54 548.833C740.2 549.129 739.859 549.442 739.519 549.77C739.292 549.553 739.066 549.343 738.84 549.143C735.137 545.855 731.426 544.47 729.198 545.76C727.061 546.997 726.428 550.67 727.327 555.266C727.414 555.71 727.516 556.163 727.63 556.624C727.105 556.773 726.598 556.932 726.113 557.101C721.772 558.615 719 560.987 719 563.447C719 565.988 721.976 568.536 726.497 570.082C726.854 570.204 727.224 570.319 727.606 570.428C727.482 570.927 727.374 571.415 727.284 571.892C726.426 576.408 727.096 579.994 729.227 581.224C731.428 582.493 735.123 581.188 738.72 578.044C739.004 577.795 739.29 577.531 739.576 577.255C739.946 577.612 740.316 577.95 740.684 578.266C744.168 581.265 747.61 582.476 749.739 581.243C751.938 579.97 752.653 576.118 751.725 571.431C751.654 571.073 751.572 570.707 751.479 570.335C751.739 570.258 751.993 570.179 752.242 570.097C756.942 568.539 760 566.022 760 563.447C760 560.978 757.138 558.59 752.71 557.066ZM751.691 568.434C751.467 568.508 751.237 568.58 751.002 568.65C750.483 567.007 749.783 565.26 748.926 563.455C749.744 561.694 750.417 559.969 750.921 558.337C751.341 558.459 751.748 558.587 752.14 558.722C755.934 560.028 758.248 561.959 758.248 563.447C758.248 565.032 755.749 567.089 751.691 568.434ZM750.007 571.771C750.417 573.843 750.476 575.717 750.204 577.182C749.96 578.498 749.469 579.376 748.862 579.727C747.569 580.475 744.806 579.503 741.826 576.939C741.485 576.645 741.141 576.331 740.795 575.999C741.951 574.735 743.105 573.266 744.232 571.635C746.214 571.459 748.087 571.172 749.785 570.779C749.869 571.116 749.943 571.447 750.007 571.771ZM732.978 579.598C731.715 580.044 730.71 580.057 730.102 579.706C728.809 578.96 728.271 576.081 729.005 572.219C729.089 571.776 729.189 571.322 729.304 570.857C730.983 571.229 732.842 571.496 734.829 571.657C735.964 573.253 737.152 574.721 738.349 576.005C738.087 576.258 737.827 576.498 737.568 576.725C735.977 578.115 734.383 579.102 732.978 579.598ZM727.064 568.424C725.064 567.741 723.413 566.853 722.282 565.884C721.265 565.013 720.751 564.148 720.751 563.447C720.751 561.954 722.977 560.05 726.689 558.755C727.14 558.598 727.611 558.45 728.101 558.311C728.614 559.98 729.287 561.725 730.099 563.489C729.276 565.28 728.594 567.053 728.076 568.741C727.727 568.641 727.389 568.535 727.064 568.424ZM729.046 554.93C728.276 550.992 728.787 548.021 730.075 547.276C731.447 546.482 734.48 547.614 737.677 550.453C737.881 550.634 738.086 550.824 738.292 551.02C737.101 552.299 735.923 553.756 734.799 555.343C732.871 555.521 731.025 555.808 729.328 556.193C729.221 555.764 729.127 555.342 729.046 554.93ZM746.732 559.297C746.326 558.596 745.909 557.912 745.485 557.246C746.793 557.412 748.046 557.631 749.223 557.9C748.87 559.032 748.43 560.216 747.911 561.43C747.539 560.724 747.146 560.012 746.732 559.297ZM739.52 552.272C740.327 553.147 741.136 554.125 741.932 555.185C741.13 555.147 740.319 555.127 739.5 555.127C738.689 555.127 737.883 555.146 737.086 555.184C737.883 554.133 738.699 553.157 739.52 552.272ZM732.261 559.309C731.856 560.012 731.47 560.72 731.104 561.429C730.594 560.219 730.157 559.03 729.801 557.881C730.971 557.619 732.218 557.405 733.518 557.243C733.088 557.915 732.668 558.604 732.261 559.309V559.309ZM733.556 569.775C732.213 569.626 730.946 569.423 729.777 569.168C730.139 567.999 730.585 566.784 731.106 565.548C731.473 566.257 731.86 566.966 732.268 567.67H732.268C732.684 568.387 733.114 569.09 733.556 569.775ZM739.568 574.745C738.738 573.849 737.91 572.859 737.101 571.793C737.886 571.824 738.687 571.839 739.5 571.839C740.336 571.839 741.162 571.821 741.975 571.784C741.177 572.869 740.37 573.862 739.568 574.745ZM747.928 565.485C748.476 566.734 748.938 567.943 749.305 569.092C748.116 569.363 746.832 569.582 745.48 569.744C745.906 569.07 746.326 568.374 746.739 567.658C747.156 566.933 747.553 566.208 747.928 565.485ZM745.222 566.783C744.581 567.894 743.923 568.955 743.255 569.956C742.038 570.043 740.781 570.088 739.5 570.088C738.224 570.088 736.983 570.048 735.788 569.971C735.093 568.956 734.421 567.892 733.784 566.792H733.784C733.149 565.695 732.564 564.589 732.035 563.489C732.564 562.386 733.147 561.279 733.779 560.184L733.779 560.184C734.412 559.086 735.078 558.027 735.767 557.019C736.986 556.927 738.236 556.879 739.5 556.879H739.5C740.769 556.879 742.021 556.927 743.24 557.02C743.918 558.021 744.58 559.076 745.216 560.174C745.859 561.285 746.449 562.385 746.983 563.464C746.451 564.562 745.862 565.673 745.222 566.783ZM748.835 547.224C750.208 548.016 750.742 551.209 749.879 555.396C749.824 555.663 749.762 555.935 749.695 556.211C747.994 555.819 746.147 555.526 744.213 555.345C743.086 553.741 741.919 552.282 740.747 551.02C741.062 550.716 741.376 550.427 741.69 550.155C744.717 547.521 747.546 546.48 748.835 547.224ZM739.5 559.786C741.522 559.786 743.161 561.425 743.161 563.447C743.161 565.469 741.522 567.108 739.5 567.108C737.478 567.108 735.839 565.469 735.839 563.447C735.839 561.425 737.478 559.786 739.5 559.786Z" fill="#00D8FF"/>
<path fill-rule="evenodd" clip-rule="evenodd" d="M790.536 583.445C789.986 583.445 789.472 583.298 788.994 583.041L784.111 580.141C783.377 579.737 783.744 579.59 783.964 579.517C784.956 579.186 785.139 579.113 786.167 578.525C786.277 578.452 786.424 578.489 786.534 578.562L790.279 580.802C790.426 580.875 790.61 580.875 790.72 580.802L805.369 572.32C805.516 572.247 805.59 572.1 805.59 571.917V554.991C805.59 554.807 805.516 554.66 805.369 554.587L790.72 546.142C790.573 546.069 790.389 546.069 790.279 546.142L775.63 554.587C775.483 554.66 775.41 554.844 775.41 554.991V571.917C775.41 572.063 775.483 572.247 775.63 572.32L779.632 574.634C781.798 575.735 783.156 574.45 783.156 573.165V556.459C783.156 556.239 783.34 556.019 783.597 556.019H785.47C785.69 556.019 785.91 556.202 785.91 556.459V573.165C785.91 576.065 784.331 577.754 781.578 577.754C780.733 577.754 780.072 577.754 778.2 576.836L774.345 574.634C773.39 574.083 772.803 573.055 772.803 571.953V555.027C772.803 553.926 773.39 552.898 774.345 552.347L788.994 543.866C789.912 543.352 791.16 543.352 792.078 543.866L806.728 552.347C807.682 552.898 808.27 553.926 808.27 555.027V571.953C808.27 573.055 807.682 574.083 806.728 574.634L792.078 583.115C791.601 583.335 791.05 583.445 790.536 583.445ZM795.052 571.806C788.627 571.806 787.305 568.869 787.305 566.373C787.305 566.152 787.489 565.932 787.746 565.932H789.655C789.875 565.932 790.059 566.079 790.059 566.299C790.353 568.245 791.197 569.2 795.089 569.2C798.173 569.2 799.495 568.502 799.495 566.85C799.495 565.895 799.128 565.198 794.318 564.72C790.316 564.316 787.819 563.435 787.819 560.241C787.819 557.267 790.316 555.505 794.502 555.505C799.201 555.505 801.514 557.12 801.808 560.645C801.808 560.755 801.771 560.865 801.698 560.975C801.624 561.049 801.514 561.122 801.404 561.122H799.495C799.311 561.122 799.128 560.975 799.091 560.792C798.65 558.772 797.512 558.112 794.502 558.112C791.124 558.112 790.72 559.286 790.72 560.168C790.72 561.232 791.197 561.563 795.75 562.15C800.266 562.738 802.395 563.582 802.395 566.74C802.359 569.971 799.715 571.806 795.052 571.806Z" fill="#539E43"/>
<g clip-path="url(#clip1_160_10180)">
<path d="M834.72 584C838.492 584 841.553 580.938 841.553 577.166V570.333H834.72C830.948 570.333 827.887 573.394 827.887 577.166C827.887 580.938 830.948 584 834.72 584Z" fill="#0ACF83"/>
<path d="M827.887 563.5C827.887 559.728 830.948 556.667 834.72 556.667H841.553V570.334H834.72C830.948 570.334 827.887 567.272 827.887 563.5Z" fill="#A259FF"/>
<path d="M827.887 549.833C827.887 546.061 830.948 543 834.72 543H841.553V556.667H834.72C830.948 556.667 827.887 553.605 827.887 549.833Z" fill="#F24E1E"/>
<path d="M841.553 543H848.387C852.159 543 855.22 546.061 855.22 549.833C855.22 553.605 852.159 556.667 848.387 556.667H841.553V543Z" fill="#FF7262"/>
<path d="M855.22 563.5C855.22 567.272 852.159 570.334 848.387 570.334C844.615 570.334 841.553 567.272 841.553 563.5C841.553 559.728 844.615 556.667 848.387 556.667C852.159 556.667 855.22 559.728 855.22 563.5Z" fill="#1ABCFE"/>
</g>
<g clip-path="url(#clip2_160_10180)">
<path fill-rule="evenodd" clip-rule="evenodd" d="M911.611 561.725L894.198 544.313C893.196 543.31 891.569 543.31 890.566 544.313L886.95 547.929L891.537 552.516C892.603 552.156 893.825 552.397 894.675 553.247C895.529 554.102 895.768 555.335 895.4 556.404L899.82 560.825C900.89 560.457 902.124 560.695 902.978 561.551C904.172 562.744 904.172 564.678 902.978 565.872C901.784 567.067 899.85 567.067 898.655 565.872C897.757 564.973 897.535 563.655 897.99 562.548L893.867 558.426L893.867 569.275C894.158 569.419 894.432 569.611 894.675 569.853C895.869 571.046 895.869 572.98 894.675 574.175C893.481 575.369 891.546 575.369 890.353 574.175C889.159 572.98 889.159 571.046 890.353 569.853C890.648 569.558 890.989 569.336 891.353 569.186V558.236C890.989 558.087 890.648 557.865 890.353 557.569C889.449 556.666 889.231 555.338 889.694 554.228L885.173 549.705L873.233 561.645C872.23 562.648 872.23 564.275 873.233 565.278L890.647 582.691C891.649 583.694 893.275 583.694 894.279 582.691L911.611 565.359C912.614 564.356 912.614 562.728 911.611 561.725Z" fill="#DE4C36"/>
</g>
</g>
<defs>
<filter id="filter0_f_160_10180" x="-10" y="0" width="1712" height="1114" filterUnits="userSpaceOnUse" color-interpolation-filters="sRGB">
<feFlood flood-opacity="0" result="BackgroundImageFix"/>
<feBlend mode="normal" in="SourceGraphic" in2="BackgroundImageFix" result="shape"/>
<feGaussianBlur stdDeviation="108" result="effect1_foregroundBlur_160_10180"/>
</filter>
<filter id="filter1_d_160_10180" x="992.391" y="343.435" width="42.3912" height="157.609" filterUnits="userSpaceOnUse" color-interpolation-filters="sRGB">
<feFlood flood-opacity="0" result="BackgroundImageFix"/>
<feColorMatrix in="SourceAlpha" type="matrix" values="0 0 0 0 0 0 0 0 0 0 0 0 0 0 0 0 0 0 127 0" result="hardAlpha"/>
<feOffset/>
<feGaussianBlur stdDeviation="9.78261"/>
<feComposite in2="hardAlpha" operator="out"/>
<feColorMatrix type="matrix" values="0 0 0 0 0.113725 0 0 0 0 0.305882 0 0 0 0 0.847059 0 0 0 1 0"/>
<feBlend mode="normal" in2="BackgroundImageFix" result="effect1_dropShadow_160_10180"/>
<feBlend mode="normal" in="SourceGraphic" in2="effect1_dropShadow_160_10180" result="shape"/>
</filter>
<filter id="filter2_d_160_10180" x="992.391" y="533.653" width="42.3912" height="205.435" filterUnits="userSpaceOnUse" color-interpolation-filters="sRGB">
<feFlood flood-opacity="0" result="BackgroundImageFix"/>
<feColorMatrix in="SourceAlpha" type="matrix" values="0 0 0 0 0 0 0 0 0 0 0 0 0 0 0 0 0 0 127 0" result="hardAlpha"/>
<feOffset/>
<feGaussianBlur stdDeviation="9.78261"/>
<feComposite in2="hardAlpha" operator="out"/>
<feColorMatrix type="matrix" values="0 0 0 0 0.996078 0 0 0 0 0.364706 0 0 0 0 0.14902 0 0 0 1 0"/>
<feBlend mode="normal" in2="BackgroundImageFix" result="effect1_dropShadow_160_10180"/>
<feBlend mode="normal" in="SourceGraphic" in2="effect1_dropShadow_160_10180" result="shape"/>
</filter>
<filter id="filter3_d_160_10180" x="956.522" y="458.653" width="114.13" height="114.13" filterUnits="userSpaceOnUse" color-interpolation-filters="sRGB">
<feFlood flood-opacity="0" result="BackgroundImageFix"/>
<feColorMatrix in="SourceAlpha" type="matrix" values="0 0 0 0 0 0 0 0 0 0 0 0 0 0 0 0 0 0 127 0" result="hardAlpha"/>
<feOffset/>
<feGaussianBlur stdDeviation="9.78261"/>
<feComposite in2="hardAlpha" operator="out"/>
<feColorMatrix type="matrix" values="0 0 0 0 0.113725 0 0 0 0 0.305882 0 0 0 0 0.847059 0 0 0 1 0"/>
<feBlend mode="normal" in2="BackgroundImageFix" result="effect1_dropShadow_160_10180"/>
<feBlend mode="normal" in="SourceGraphic" in2="effect1_dropShadow_160_10180" result="shape"/>
</filter>
<filter id="filter4_d_160_10180" x="980.435" y="482.566" width="66.3043" height="66.3043" filterUnits="userSpaceOnUse" color-interpolation-filters="sRGB">
<feFlood flood-opacity="0" result="BackgroundImageFix"/>
<feColorMatrix in="SourceAlpha" type="matrix" values="0 0 0 0 0 0 0 0 0 0 0 0 0 0 0 0 0 0 127 0" result="hardAlpha"/>
<feOffset/>
<feGaussianBlur stdDeviation="9.78261"/>
<feComposite in2="hardAlpha" operator="out"/>
<feColorMatrix type="matrix" values="0 0 0 0 0.113725 0 0 0 0 0.305882 0 0 0 0 0.847059 0 0 0 1 0"/>
<feBlend mode="normal" in2="BackgroundImageFix" result="effect1_dropShadow_160_10180"/>
<feBlend mode="normal" in="SourceGraphic" in2="effect1_dropShadow_160_10180" result="shape"/>
</filter>
<filter id="filter5_d_160_10180" x="926.087" y="631.479" width="61.9566" height="61.9566" filterUnits="userSpaceOnUse" color-interpolation-filters="sRGB">
<feFlood flood-opacity="0" result="BackgroundImageFix"/>
<feColorMatrix in="SourceAlpha" type="matrix" values="0 0 0 0 0 0 0 0 0 0 0 0 0 0 0 0 0 0 127 0" result="hardAlpha"/>
<feOffset/>
<feGaussianBlur stdDeviation="9.78261"/>
<feComposite in2="hardAlpha" operator="out"/>
<feColorMatrix type="matrix" values="0 0 0 0 0.996078 0 0 0 0 0.364706 0 0 0 0 0.14902 0 0 0 1 0"/>
<feBlend mode="normal" in2="BackgroundImageFix" result="effect1_dropShadow_160_10180"/>
<feBlend mode="normal" in="SourceGraphic" in2="effect1_dropShadow_160_10180" result="shape"/>
</filter>
<filter id="filter6_d_160_10180" x="933.696" y="639.087" width="46.7393" height="46.7388" filterUnits="userSpaceOnUse" color-interpolation-filters="sRGB">
<feFlood flood-opacity="0" result="BackgroundImageFix"/>
<feColorMatrix in="SourceAlpha" type="matrix" values="0 0 0 0 0 0 0 0 0 0 0 0 0 0 0 0 0 0 127 0" result="hardAlpha"/>
<feOffset/>
<feGaussianBlur stdDeviation="9.78261"/>
<feComposite in2="hardAlpha" operator="out"/>
<feColorMatrix type="matrix" values="0 0 0 0 0.996078 0 0 0 0 0.364706 0 0 0 0 0.14902 0 0 0 1 0"/>
<feBlend mode="normal" in2="BackgroundImageFix" result="effect1_dropShadow_160_10180"/>
<feBlend mode="normal" in="SourceGraphic" in2="effect1_dropShadow_160_10180" result="shape"/>
</filter>
<filter id="filter7_d_160_10180" x="982.609" y="699.956" width="61.9566" height="61.9566" filterUnits="userSpaceOnUse" color-interpolation-filters="sRGB">
<feFlood flood-opacity="0" result="BackgroundImageFix"/>
<feColorMatrix in="SourceAlpha" type="matrix" values="0 0 0 0 0 0 0 0 0 0 0 0 0 0 0 0 0 0 127 0" result="hardAlpha"/>
<feOffset/>
<feGaussianBlur stdDeviation="9.78261"/>
<feComposite in2="hardAlpha" operator="out"/>
<feColorMatrix type="matrix" values="0 0 0 0 0.996078 0 0 0 0 0.364706 0 0 0 0 0.14902 0 0 0 1 0"/>
<feBlend mode="normal" in2="BackgroundImageFix" result="effect1_dropShadow_160_10180"/>
<feBlend mode="normal" in="SourceGraphic" in2="effect1_dropShadow_160_10180" result="shape"/>
</filter>
<filter id="filter8_d_160_10180" x="990.217" y="707.566" width="46.7393" height="46.7388" filterUnits="userSpaceOnUse" color-interpolation-filters="sRGB">
<feFlood flood-opacity="0" result="BackgroundImageFix"/>
<feColorMatrix in="SourceAlpha" type="matrix" values="0 0 0 0 0 0 0 0 0 0 0 0 0 0 0 0 0 0 127 0" result="hardAlpha"/>
<feOffset/>
<feGaussianBlur stdDeviation="9.78261"/>
<feComposite in2="hardAlpha" operator="out"/>
<feColorMatrix type="matrix" values="0 0 0 0 0.996078 0 0 0 0 0.364706 0 0 0 0 0.14902 0 0 0 1 0"/>
<feBlend mode="normal" in2="BackgroundImageFix" result="effect1_dropShadow_160_10180"/>
<feBlend mode="normal" in="SourceGraphic" in2="effect1_dropShadow_160_10180" result="shape"/>
</filter>
<filter id="filter9_d_160_10180" x="947.826" y="538" width="85.8697" height="146.196" filterUnits="userSpaceOnUse" color-interpolation-filters="sRGB">
<feFlood flood-opacity="0" result="BackgroundImageFix"/>
<feColorMatrix in="SourceAlpha" type="matrix" values="0 0 0 0 0 0 0 0 0 0 0 0 0 0 0 0 0 0 127 0" result="hardAlpha"/>
<feOffset/>
<feGaussianBlur stdDeviation="9.78261"/>
<feComposite in2="hardAlpha" operator="out"/>
<feColorMatrix type="matrix" values="0 0 0 0 0.996078 0 0 0 0 0.364706 0 0 0 0 0.14902 0 0 0 1 0"/>
<feBlend mode="normal" in2="BackgroundImageFix" result="effect1_dropShadow_160_10180"/>
<feBlend mode="normal" in="SourceGraphic" in2="effect1_dropShadow_160_10180" result="shape"/>
</filter>
<filter id="filter10_d_160_10180" x="1039.13" y="631.479" width="61.9566" height="61.9566" filterUnits="userSpaceOnUse" color-interpolation-filters="sRGB">
<feFlood flood-opacity="0" result="BackgroundImageFix"/>
<feColorMatrix in="SourceAlpha" type="matrix" values="0 0 0 0 0 0 0 0 0 0 0 0 0 0 0 0 0 0 127 0" result="hardAlpha"/>
<feOffset/>
<feGaussianBlur stdDeviation="9.78261"/>
<feComposite in2="hardAlpha" operator="out"/>
<feColorMatrix type="matrix" values="0 0 0 0 0.996078 0 0 0 0 0.364706 0 0 0 0 0.14902 0 0 0 1 0"/>
<feBlend mode="normal" in2="BackgroundImageFix" result="effect1_dropShadow_160_10180"/>
<feBlend mode="normal" in="SourceGraphic" in2="effect1_dropShadow_160_10180" result="shape"/>
</filter>
<filter id="filter11_d_160_10180" x="1046.74" y="639.087" width="46.7393" height="46.7388" filterUnits="userSpaceOnUse" color-interpolation-filters="sRGB">
<feFlood flood-opacity="0" result="BackgroundImageFix"/>
<feColorMatrix in="SourceAlpha" type="matrix" values="0 0 0 0 0 0 0 0 0 0 0 0 0 0 0 0 0 0 127 0" result="hardAlpha"/>
<feOffset/>
<feGaussianBlur stdDeviation="9.78261"/>
<feComposite in2="hardAlpha" operator="out"/>
<feColorMatrix type="matrix" values="0 0 0 0 0.996078 0 0 0 0 0.364706 0 0 0 0 0.14902 0 0 0 1 0"/>
<feBlend mode="normal" in2="BackgroundImageFix" result="effect1_dropShadow_160_10180"/>
<feBlend mode="normal" in="SourceGraphic" in2="effect1_dropShadow_160_10180" result="shape"/>
</filter>
<filter id="filter12_d_160_10180" x="993.478" y="538" width="85.8697" height="146.196" filterUnits="userSpaceOnUse" color-interpolation-filters="sRGB">
<feFlood flood-opacity="0" result="BackgroundImageFix"/>
<feColorMatrix in="SourceAlpha" type="matrix" values="0 0 0 0 0 0 0 0 0 0 0 0 0 0 0 0 0 0 127 0" result="hardAlpha"/>
<feOffset/>
<feGaussianBlur stdDeviation="9.78261"/>
<feComposite in2="hardAlpha" operator="out"/>
<feColorMatrix type="matrix" values="0 0 0 0 0.996078 0 0 0 0 0.364706 0 0 0 0 0.14902 0 0 0 1 0"/>
<feBlend mode="normal" in2="BackgroundImageFix" result="effect1_dropShadow_160_10180"/>
<feBlend mode="normal" in="SourceGraphic" in2="effect1_dropShadow_160_10180" result="shape"/>
</filter>
<filter id="filter13_d_160_10180" x="654" y="405" width="50" height="48" filterUnits="userSpaceOnUse" color-interpolation-filters="sRGB">
<feFlood flood-opacity="0" result="BackgroundImageFix"/>
<feColorMatrix in="SourceAlpha" type="matrix" values="0 0 0 0 0 0 0 0 0 0 0 0 0 0 0 0 0 0 127 0" result="hardAlpha"/>
<feOffset dy="4"/>
<feGaussianBlur stdDeviation="2"/>
<feComposite in2="hardAlpha" operator="out"/>
<feColorMatrix type="matrix" values="0 0 0 0 0 0 0 0 0 0 0 0 0 0 0 0 0 0 0.25 0"/>
<feBlend mode="normal" in2="BackgroundImageFix" result="effect1_dropShadow_160_10180"/>
<feBlend mode="normal" in="SourceGraphic" in2="effect1_dropShadow_160_10180" result="shape"/>
</filter>
<filter id="filter14_d_160_10180" x="685" y="438" width="293" height="212" filterUnits="userSpaceOnUse" color-interpolation-filters="sRGB">
<feFlood flood-opacity="0" result="BackgroundImageFix"/>
<feColorMatrix in="SourceAlpha" type="matrix" values="0 0 0 0 0 0 0 0 0 0 0 0 0 0 0 0 0 0 127 0" result="hardAlpha"/>
<feOffset dy="4"/>
<feGaussianBlur stdDeviation="2"/>
<feComposite in2="hardAlpha" operator="out"/>
<feColorMatrix type="matrix" values="0 0 0 0 0 0 0 0 0 0 0 0 0 0 0 0 0 0 0.25 0"/>
<feBlend mode="normal" in2="BackgroundImageFix" result="effect1_dropShadow_160_10180"/>
<feBlend mode="normal" in="SourceGraphic" in2="effect1_dropShadow_160_10180" result="shape"/>
</filter>
<radialGradient id="paint0_diamond_160_10180" cx="0" cy="0" r="1" gradientUnits="userSpaceOnUse" gradientTransform="translate(835.029 559.633) rotate(32.2486) scale(344.205 152.931)">
<stop stop-color="#FE5D26"/>
<stop offset="1" stop-opacity="0"/>
</radialGradient>
<linearGradient id="paint1_linear_160_10180" x1="1011.96" y1="446.696" x2="1013.04" y2="401.587" gradientUnits="userSpaceOnUse">
<stop stop-color="#FE5D26"/>
<stop offset="1" stop-color="#FE5D26" stop-opacity="0"/>
</linearGradient>
<clipPath id="clip0_160_10180">
<rect x="746" y="328" width="407" height="219" rx="15" fill="white"/>
</clipPath>
<clipPath id="clip1_160_10180">
<rect width="41" height="41" fill="white" transform="translate(821 543)"/>
</clipPath>
<clipPath id="clip2_160_10180">
<rect width="40.0391" height="39.8833" fill="white" transform="translate(872.48 543.561)"/>
</clipPath>
</defs>
</svg>
