<svg width="25" height="25" viewBox="0 0 25 25" fill="none" xmlns="http://www.w3.org/2000/svg">
<path d="M22.75 1.5H15.75C15.1775 1.49766 14.6224 1.69671 14.1818 2.06233C13.7412 2.42795 13.4432 2.93686 13.34 3.5L12.42 8.55C12.3564 8.90184 12.3709 9.26335 12.4625 9.60896C12.5541 9.95457 12.7205 10.2758 12.95 10.55C13.1807 10.8243 13.4684 11.0451 13.7931 11.1971C14.1177 11.349 14.4715 11.4285 14.83 11.43H17.75L17.5 12.09C17.3154 12.5794 17.2513 13.106 17.3131 13.6253C17.3748 14.1447 17.5607 14.6416 17.8548 15.074C18.149 15.5065 18.5429 15.8618 19.0033 16.11C19.4637 16.3582 19.977 16.4919 20.5 16.5C20.6941 16.5015 20.8844 16.4466 21.0477 16.3418C21.2111 16.237 21.3404 16.087 21.42 15.91L23.66 10.85C23.711 10.7398 23.7415 10.6212 23.75 10.5V2.5C23.75 2.23478 23.6446 1.98043 23.4571 1.79289C23.2696 1.60536 23.0152 1.5 22.75 1.5ZM21.75 10.23L19.92 14.36C19.7408 14.2637 19.5866 14.1267 19.47 13.96C19.3523 13.7934 19.2779 13.6002 19.2535 13.3977C19.229 13.1952 19.2553 12.9898 19.33 12.8L19.71 11.8C19.81 11.5406 19.844 11.2605 19.8091 10.9848C19.7742 10.709 19.6714 10.4463 19.51 10.22C19.351 9.99461 19.1396 9.81128 18.8939 9.68584C18.6483 9.56041 18.3758 9.49662 18.1 9.5H14.81C14.7436 9.50019 14.6779 9.48598 14.6175 9.45836C14.557 9.43074 14.5033 9.39036 14.46 9.34C14.3824 9.23337 14.35 9.10038 14.37 8.97L15.29 3.97C15.2857 3.90802 15.2946 3.84584 15.316 3.78754C15.3375 3.72923 15.371 3.67613 15.4145 3.63173C15.4579 3.58733 15.5103 3.55264 15.5681 3.52993C15.626 3.50723 15.6879 3.49703 15.75 3.5H21.75V10.23ZM10.69 13.55H7.8L8.05 12.89C8.2319 12.3978 8.29228 11.8689 8.22602 11.3483C8.15975 10.8278 7.9688 10.3309 7.66938 9.89993C7.36996 9.46897 6.97094 9.11665 6.5062 8.87293C6.04147 8.6292 5.52476 8.50127 5 8.5C4.80594 8.49847 4.61563 8.55343 4.45227 8.6582C4.28891 8.76296 4.15956 8.91299 4.08 9.09L1.84 14.15C1.7827 14.2757 1.75205 14.4119 1.75 14.55V22.55C1.75 22.8152 1.85536 23.0696 2.04289 23.2571C2.23043 23.4446 2.48478 23.55 2.75 23.55H9.75C10.3225 23.5523 10.8776 23.3533 11.3182 22.9877C11.7588 22.622 12.0568 22.1131 12.16 21.55L13.08 16.55C13.1436 16.1982 13.1291 15.8366 13.0375 15.491C12.9459 15.1454 12.7795 14.8242 12.55 14.55C12.3332 14.2562 12.0539 14.0141 11.7323 13.8412C11.4106 13.6683 11.0547 13.5688 10.69 13.55ZM10.21 21.13C10.1928 21.2377 10.1363 21.3352 10.0513 21.4036C9.96626 21.472 9.8589 21.5063 9.75 21.5H3.75V14.77L5.58 10.64C5.75923 10.7363 5.91337 10.8733 6.03 11.04C6.14768 11.2066 6.22209 11.3998 6.24653 11.6023C6.27097 11.8048 6.24467 12.0102 6.17 12.2L5.79 13.2C5.69003 13.4594 5.65597 13.7395 5.69088 14.0152C5.72578 14.291 5.82856 14.5537 5.99 14.78C6.14675 15.0091 6.35721 15.1963 6.603 15.3253C6.84879 15.4543 7.12242 15.5211 7.4 15.52H10.69C10.7564 15.5198 10.8221 15.534 10.8825 15.5616C10.943 15.5893 10.9967 15.6296 11.04 15.68C11.1176 15.7866 11.15 15.9196 11.13 16.05L10.21 21.13Z" fill="#FE5D26"/>
</svg>
