<svg width="66" height="66" viewBox="0 0 66 66" fill="none" xmlns="http://www.w3.org/2000/svg">
<rect x="0.360629" y="0.436312" width="64.3636" height="64.3636" rx="8.50784" fill="url(#paint0_linear_160_10016)" fill-opacity="0.2"/>
<rect x="0.360629" y="0.436312" width="64.3636" height="64.3636" rx="8.50784" stroke="#262626" stroke-width="0.739812"/>
<path d="M40.403 20.5962C39.1262 20.5962 38.0911 21.6313 38.0911 22.9081V42.3282C38.0911 43.605 39.1262 44.6401 40.403 44.6401H41.3278C42.6046 44.6401 43.6397 43.605 43.6397 42.3282V22.9081C43.6397 21.6313 42.6046 20.5962 41.3278 20.5962H40.403Z" fill="#FE5D26"/>
<path d="M29.7682 28.4567C29.7682 27.1799 30.8033 26.1448 32.0801 26.1448H33.0049C34.2817 26.1448 35.3168 27.1799 35.3168 28.4567V42.3282C35.3168 43.605 34.2817 44.6401 33.0049 44.6401H32.0801C30.8033 44.6401 29.7682 43.605 29.7682 42.3282V28.4567Z" fill="#FE5D26"/>
<path d="M21.4453 34.0053C21.4453 32.7284 22.4804 31.6934 23.7572 31.6934H24.682C25.9588 31.6934 26.9939 32.7284 26.9939 34.0053V42.3282C26.9939 43.605 25.9588 44.6401 24.682 44.6401H23.7572C22.4804 44.6401 21.4453 43.605 21.4453 42.3282V34.0053Z" fill="#FE5D26"/>
<defs>
<linearGradient id="paint0_linear_160_10016" x1="-83.9779" y1="-64.2972" x2="65.0942" y2="65.1698" gradientUnits="userSpaceOnUse">
<stop offset="0.224072" stop-color="#FE5D26"/>
<stop offset="0.707836" stop-color="#FE5D26" stop-opacity="0.5"/>
</linearGradient>
</defs>
</svg>
