<svg width="66" height="66" viewBox="0 0 66 66" fill="none" xmlns="http://www.w3.org/2000/svg">
<rect x="0.360629" y="0.696566" width="64.3636" height="64.3636" rx="8.50784" fill="url(#paint0_linear_160_10037)" fill-opacity="0.2"/>
<rect x="0.360629" y="0.696566" width="64.3636" height="64.3636" rx="8.50784" stroke="#262626" stroke-width="0.739812"/>
<path fill-rule="evenodd" clip-rule="evenodd" d="M19.5957 30.2056V32.416C19.5957 33.6929 20.6308 34.728 21.9076 34.728H43.1772C44.454 34.728 45.4891 33.6929 45.4891 32.416V30.2056C45.4891 29.3226 45.1733 28.4688 44.5986 27.7983L40.5483 23.073C39.8456 22.2531 38.8196 21.7812 37.7398 21.7812H27.3451C26.2652 21.7812 25.2393 22.2531 24.5365 23.073L20.4862 27.7983C19.9116 28.4688 19.5957 29.3226 19.5957 30.2056ZM27.3451 23.6308C26.8051 23.6308 26.2922 23.8667 25.9408 24.2767L22.5311 28.2546H26.4338C27.6706 28.2546 28.8256 28.8727 29.5116 29.9018L29.714 30.2053C30.057 30.7198 30.6345 31.0289 31.2529 31.0289H33.8319C34.4503 31.0289 35.0278 30.7198 35.3708 30.2053L35.5732 29.9018C36.2592 28.8727 37.4142 28.2546 38.651 28.2546H42.5537L39.144 24.2767C38.7927 23.8667 38.2797 23.6308 37.7398 23.6308H27.3451Z" fill="#4280EF"/>
<path d="M21.214 36.5775C20.3203 36.5775 19.5957 37.302 19.5957 38.1958V40.2765C19.5957 42.3195 21.2518 43.9756 23.2948 43.9756H41.7901C43.833 43.9756 45.4891 42.3195 45.4891 40.2765V38.1958C45.4891 37.302 44.7646 36.5775 43.8708 36.5775H38.651C37.4142 36.5775 36.2592 37.1956 35.5732 38.2247L35.3708 38.5282C35.0278 39.0427 34.4503 39.3518 33.8319 39.3518H31.2529C30.6345 39.3518 30.057 39.0427 29.714 38.5282L29.5116 38.2247C28.8256 37.1956 27.6706 36.5775 26.4338 36.5775H21.214Z" fill="#4280EF"/>
<defs>
<linearGradient id="paint0_linear_160_10037" x1="-83.9779" y1="-64.037" x2="65.0942" y2="65.4301" gradientUnits="userSpaceOnUse">
<stop offset="0.224072" stop-color="#4280EF"/>
<stop offset="0.707836" stop-color="#4280EF"/>
</linearGradient>
</defs>
</svg>
