<svg width="66" height="66" viewBox="0 0 66 66" fill="none" xmlns="http://www.w3.org/2000/svg">
<rect x="0.360629" y="0.95682" width="64.3636" height="64.3636" rx="8.50784" fill="url(#paint0_linear_160_10067)" fill-opacity="0.2"/>
<rect x="0.360629" y="0.95682" width="64.3636" height="64.3636" rx="8.50784" stroke="#262626" stroke-width="0.739812"/>
<g clip-path="url(#clip0_160_10067)">
<path d="M17.7461 33.2307C17.7461 35.2876 19.198 36.4169 20.8314 36.4169C21.517 36.4169 22.0313 36.2252 22.6463 35.8421C23.221 35.4893 23.6344 35.7009 23.6344 36.195V39.9256C23.6344 41.9119 24.683 42.9303 26.6895 42.9303H29.3816C29.8655 42.9303 30.0773 42.5269 29.7345 41.9523C29.3413 41.3372 29.1497 40.823 29.1497 40.1374C29.1497 38.504 30.289 37.0521 32.346 37.0521C34.4028 37.0521 35.5321 38.504 35.5321 40.1374C35.5321 40.823 35.3405 41.3372 34.9573 41.9523C34.6146 42.5269 34.8162 42.9303 35.3103 42.9303H38.0024C40.0088 42.9303 41.0575 41.9119 41.0575 39.9256V36.195C41.0575 35.7009 41.4708 35.4893 42.0355 35.8421C42.6605 36.2252 43.1748 36.4169 43.8503 36.4169C45.4938 36.4169 46.9457 35.2876 46.9457 33.2307C46.9457 31.1637 45.4938 30.0345 43.8503 30.0345C43.1748 30.0345 42.6605 30.226 42.0355 30.6092C41.4708 30.9621 41.0575 30.7503 41.0575 30.2563V26.5257C41.0575 24.5494 40.0088 23.521 38.0024 23.521H35.3103C34.8162 23.521 34.6146 23.9344 34.9573 24.5091C35.3405 25.1242 35.5321 25.6384 35.5321 26.324C35.5321 27.9574 34.4028 29.4093 32.346 29.4093C30.289 29.4093 29.1497 27.9574 29.1497 26.324C29.1497 25.6384 29.3413 25.1242 29.7345 24.5091C30.0773 23.9344 29.8655 23.521 29.3816 23.521H26.6895C24.683 23.521 23.6344 24.5494 23.6344 26.5257V30.2563C23.6344 30.7503 23.221 30.9621 22.6463 30.6092C22.0313 30.226 21.517 30.0345 20.8314 30.0345C19.198 30.0345 17.7461 31.1637 17.7461 33.2307Z" fill="#34A353"/>
</g>
<defs>
<linearGradient id="paint0_linear_160_10067" x1="-83.9779" y1="-63.7767" x2="65.0942" y2="65.6904" gradientUnits="userSpaceOnUse">
<stop offset="0.224072" stop-color="#34A353"/>
<stop offset="0.707836" stop-color="#34A353" stop-opacity="0"/>
</linearGradient>
<clipPath id="clip0_160_10067">
<rect width="29.5925" height="29.5925" fill="white" transform="translate(17.7461 18.3423)"/>
</clipPath>
</defs>
</svg>
