<svg width="66" height="66" viewBox="0 0 66 66" fill="none" xmlns="http://www.w3.org/2000/svg">
<rect x="0.360629" y="0.436312" width="64.3636" height="64.3636" rx="8.50784" fill="url(#paint0_linear_160_10022)" fill-opacity="0.2"/>
<rect x="0.360629" y="0.436312" width="64.3636" height="64.3636" rx="8.50784" stroke="#262626" stroke-width="0.739812"/>
<path d="M22.6 21.1058C22.1666 20.6724 21.464 20.6724 21.0306 21.1058C20.5972 21.5392 20.5972 22.2418 21.0306 22.6752L25.7945 27.4391H21.8153C21.2024 27.4391 20.7056 27.9359 20.7056 28.5488C20.7056 29.1617 21.2024 29.6585 21.8153 29.6585H28.4736C29.0865 29.6585 29.5833 29.1617 29.5833 28.5488V21.8905C29.5833 21.2776 29.0865 20.7808 28.4736 20.7808C27.8607 20.7808 27.3639 21.2776 27.3639 21.8905V25.8697L22.6 21.1058Z" fill="#FE5D26"/>
<path d="M37.7212 21.8905C37.7212 21.2776 37.2244 20.7808 36.6115 20.7808C35.9986 20.7808 35.5018 21.2776 35.5018 21.8905V28.5488C35.5018 29.1617 35.9986 29.6585 36.6115 29.6585H43.2698C43.8827 29.6585 44.3795 29.1617 44.3795 28.5488C44.3795 27.9359 43.8827 27.4391 43.2698 27.4391H39.2906L44.0545 22.6752C44.4879 22.2418 44.4879 21.5392 44.0545 21.1058C43.6211 20.6724 42.9185 20.6724 42.4851 21.1058L37.7212 25.8697V21.8905Z" fill="#FE5D26"/>
<path d="M22.6 44.1297L27.3639 39.3658V43.345C27.3639 43.9579 27.8607 44.4547 28.4736 44.4547C29.0865 44.4547 29.5833 43.9579 29.5833 43.345V36.6867C29.5833 36.0738 29.0865 35.577 28.4736 35.577H21.8153C21.2024 35.577 20.7056 36.0738 20.7056 36.6867C20.7056 37.2996 21.2024 37.7964 21.8153 37.7964H25.7945L21.0306 42.5603C20.5972 42.9937 20.5972 43.6963 21.0306 44.1297C21.464 44.5631 22.1666 44.5631 22.6 44.1297Z" fill="#FE5D26"/>
<path d="M37.7212 39.3658L42.4851 44.1297C42.9185 44.5631 43.6211 44.5631 44.0545 44.1297C44.4879 43.6963 44.4879 42.9937 44.0545 42.5603L39.2906 37.7964H43.2698C43.8827 37.7964 44.3795 37.2996 44.3795 36.6867C44.3795 36.0738 43.8827 35.577 43.2698 35.577H36.6115C35.9986 35.577 35.5018 36.0738 35.5018 36.6867V43.345C35.5018 43.9579 35.9986 44.4547 36.6115 44.4547C37.2244 44.4547 37.7212 43.9579 37.7212 43.345V39.3658Z" fill="#FE5D26"/>
<defs>
<linearGradient id="paint0_linear_160_10022" x1="-83.9779" y1="-64.2972" x2="65.0942" y2="65.1698" gradientUnits="userSpaceOnUse">
<stop offset="0.224072" stop-color="#FE5D26"/>
<stop offset="0.707836" stop-color="#FE5D26" stop-opacity="0.5"/>
</linearGradient>
</defs>
</svg>
