<svg width="66" height="66" viewBox="0 0 66 66" fill="none" xmlns="http://www.w3.org/2000/svg">
<rect x="0.360629" y="0.95682" width="64.3636" height="64.3636" rx="8.50784" fill="url(#paint0_linear_160_10085)" fill-opacity="0.2"/>
<rect x="0.360629" y="0.95682" width="64.3636" height="64.3636" rx="8.50784" stroke="#262626" stroke-width="0.739812"/>
<path d="M18.8032 43.583C18.8032 44.1775 19.1996 44.5615 19.794 44.5615H44.4283C44.9732 44.5615 45.4315 44.1279 45.4315 43.5706C45.4315 43.0257 44.9732 42.5798 44.4283 42.5798H21.144C20.8839 42.5798 20.7972 42.4932 20.7972 42.2331V22.6519C20.7972 22.1194 20.3514 21.6611 19.8064 21.6611C19.2491 21.6611 18.8032 22.1194 18.8032 22.6519V43.583ZM20.1037 35.8794L28.0674 31.2721L33.8017 36.189L43.9948 30.1203L43.2146 28.857L33.9009 34.4055L28.1912 29.5134L20.1037 34.1826V35.8794ZM27.9064 32.9441C29.1201 32.9441 30.1109 31.9533 30.1109 30.7395C30.1109 29.5258 29.1201 28.5473 27.9064 28.5473C26.6926 28.5473 25.7018 29.5258 25.7018 30.7395C25.7018 31.9533 26.6926 32.9441 27.9064 32.9441ZM33.7522 37.4895C34.966 37.4895 35.9445 36.4987 35.9445 35.2848C35.9445 34.0711 34.966 33.0927 33.7522 33.0927C32.5385 33.0927 31.5476 34.0711 31.5476 35.2848C31.5476 36.4987 32.5385 37.4895 33.7522 37.4895ZM43.0907 31.8542C44.3044 31.8542 45.2953 30.8634 45.2953 29.6496C45.2953 28.4359 44.3044 27.445 43.0907 27.445C41.8769 27.445 40.8861 28.4359 40.8861 29.6496C40.8861 30.8634 41.8769 31.8542 43.0907 31.8542Z" fill="#34A353"/>
<defs>
<linearGradient id="paint0_linear_160_10085" x1="-83.9779" y1="-63.7767" x2="65.0942" y2="65.6904" gradientUnits="userSpaceOnUse">
<stop offset="0.224072" stop-color="#34A353"/>
<stop offset="0.707836" stop-color="#34A353" stop-opacity="0"/>
</linearGradient>
</defs>
</svg>
