<svg width="66" height="66" viewBox="0 0 66 66" fill="none" xmlns="http://www.w3.org/2000/svg">
<rect x="0.360629" y="0.436312" width="64.3636" height="64.3636" rx="8.50784" fill="url(#paint0_linear_160_10010)" fill-opacity="0.2"/>
<rect x="0.360629" y="0.436312" width="64.3636" height="64.3636" rx="8.50784" stroke="#262626" stroke-width="0.739812"/>
<path fill-rule="evenodd" clip-rule="evenodd" d="M24.5008 24.6761C24.7396 23.9 25.4566 23.3705 26.2686 23.3705H28.8434C29.3541 23.3705 29.7681 22.9565 29.7681 22.4457C29.7681 21.935 29.3541 21.521 28.8434 21.521H26.2686C24.6446 21.521 23.2106 22.5801 22.7331 24.1322L19.7593 33.797C19.6508 34.1494 19.5957 34.5161 19.5957 34.8848V40.0163C19.5957 42.0592 21.2518 43.7153 23.2948 43.7153H41.7901C43.833 43.7153 45.4891 42.0592 45.4891 40.0163V34.8848C45.4891 34.5161 45.434 34.1494 45.3255 33.797L42.3518 24.1322C41.8742 22.5801 40.4402 21.521 38.8163 21.521H36.2415C35.7307 21.521 35.3167 21.935 35.3167 22.4457C35.3167 22.9565 35.7307 23.3705 36.2415 23.3705H38.8163C39.6282 23.3705 40.3452 23.9 40.584 24.6761L43.3123 33.5429H39.8056C38.4045 33.5429 37.1237 34.3345 36.4971 35.5877L36.1811 36.2196C35.8678 36.8462 35.2274 37.242 34.5269 37.242H30.558C29.8574 37.242 29.217 36.8462 28.9037 36.2196L28.5878 35.5877C27.9612 34.3345 26.6803 33.5429 25.2792 33.5429H21.7726L24.5008 24.6761Z" fill="#FE5D26"/>
<path fill-rule="evenodd" clip-rule="evenodd" d="M32.5424 20.5962C33.0531 20.5962 33.4672 21.0102 33.4672 21.521V29.4608L35.5876 27.3404C35.9487 26.9793 36.5342 26.9793 36.8954 27.3404C37.2565 27.7015 37.2565 28.2871 36.8954 28.6482L33.1963 32.3473C32.8352 32.7084 32.2496 32.7084 31.8885 32.3473L28.1894 28.6482C27.8283 28.2871 27.8283 27.7015 28.1894 27.3404C28.5506 26.9793 29.1361 26.9793 29.4973 27.3404L31.6176 29.4608V21.521C31.6176 21.0102 32.0317 20.5962 32.5424 20.5962Z" fill="#FE5D26"/>
<defs>
<linearGradient id="paint0_linear_160_10010" x1="-83.9779" y1="-64.2972" x2="65.0942" y2="65.1698" gradientUnits="userSpaceOnUse">
<stop offset="0.224072" stop-color="#FE5D26"/>
<stop offset="0.707836" stop-color="#FE5D26" stop-opacity="0.5"/>
</linearGradient>
</defs>
</svg>
