<svg width="66" height="66" viewBox="0 0 66 66" fill="none" xmlns="http://www.w3.org/2000/svg">
<rect x="0.360629" y="0.95682" width="64.3636" height="64.3636" rx="8.50784" fill="url(#paint0_linear_160_10094)" fill-opacity="0.2"/>
<rect x="0.360629" y="0.95682" width="64.3636" height="64.3636" rx="8.50784" stroke="#262626" stroke-width="0.739812"/>
<path d="M19.2694 46.3868C21.3129 48.4304 24.3473 48.5047 26.3537 46.1144C27.8276 44.3433 31.5555 38.3364 34.7509 35.1409C36.8812 33.0107 39.2344 34.1378 41.6 33.1718L39.4944 25.4929C39.2344 24.5392 39.6183 23.7466 40.7206 23.4493L45.3651 22.2108C45.2165 21.7773 44.8078 21.1828 44.3 20.6626C41.439 17.7273 36.7078 17.6902 33.8839 20.3654C29.7597 24.2915 32.8931 28.4406 30.1807 31.1529C26.7624 34.5589 22.056 37.0359 19.5418 39.29C17.1886 41.3832 17.201 44.3184 19.2694 46.3868ZM22.7744 44.4052C21.9322 44.4052 21.2386 43.7239 21.2386 42.8818C21.2386 42.0396 21.9322 41.346 22.7744 41.346C23.6166 41.346 24.2978 42.0396 24.2978 42.8818C24.2978 43.7239 23.6166 44.4052 22.7744 44.4052ZM34.4165 27.8585C34.144 27.9328 33.9088 27.7965 33.822 27.4993C33.7477 27.2764 33.8963 27.0039 34.1564 26.9296L37.0546 26.1493C37.2899 26.0874 37.5624 26.236 37.6243 26.4961C37.711 26.7809 37.55 27.0287 37.2899 27.103L34.4165 27.8585ZM34.7881 29.3323C34.5156 29.4067 34.2803 29.2704 34.1812 28.9731C34.1069 28.7502 34.2679 28.4777 34.528 28.4158L37.4138 27.6231C37.649 27.5736 37.9215 27.7098 37.9958 27.9699C38.0826 28.2548 37.9091 28.5025 37.649 28.5768L34.7881 29.3323ZM35.1472 30.8062C34.8871 30.8805 34.6147 30.7442 34.5652 30.4469C34.5033 30.1993 34.6395 29.964 34.9119 29.8897L37.7853 29.1217C38.0577 29.0351 38.3178 29.196 38.3674 29.4438C38.4293 29.6915 38.2807 29.964 38.0454 30.0259L35.1472 30.8062ZM42.9624 32.5773C43.4454 32.2924 43.9407 31.9209 44.4485 31.4378C46.0091 30.0259 46.8141 27.8956 46.4921 26.3846L42.7394 27.4126C42.3183 27.5241 41.9591 27.5488 41.5752 27.4869L42.9624 32.5773Z" fill="#34A353"/>
<defs>
<linearGradient id="paint0_linear_160_10094" x1="-83.9779" y1="-63.7767" x2="65.0942" y2="65.6904" gradientUnits="userSpaceOnUse">
<stop offset="0.224072" stop-color="#34A353"/>
<stop offset="0.707836" stop-color="#34A353" stop-opacity="0"/>
</linearGradient>
</defs>
</svg>
