<svg width="17" height="17" viewBox="0 0 17 17" fill="none" xmlns="http://www.w3.org/2000/svg">
<path d="M4.82788 2.594L4.68738 2.844L1.56237 8.297L1.42188 8.547L1.56237 8.797L4.68738 14.25L4.82788 14.5H11.6719L11.8124 14.25L14.9374 8.797L15.0779 8.547L14.9374 8.297L11.8124 2.844L11.6719 2.594H4.82788ZM6.04688 3.594H9.10938L6.82788 4.4065L6.04688 3.594ZM10.6094 3.594L8.31238 5.9375L7.21838 4.797L10.6094 3.594ZM5.38987 3.64L6.32737 4.5935L5.37437 4.937V3.672L5.38987 3.64ZM11.1554 3.734L12.4689 6L10.4539 8.1405L8.67237 6.297L11.1554 3.734ZM4.87488 4.547V5.1095L4.46838 5.25L4.87488 4.547ZM6.70288 4.9845L7.96838 6.297L6.10938 8.1875L5.37488 7.406V5.469L6.70288 4.9845ZM4.87488 5.64V6.8745L4.04688 5.984L4.07788 5.9215L4.87488 5.64ZM3.78087 6.437L4.87488 7.609V9.4685L3.76538 10.6085L2.57788 8.5465L3.78087 6.437ZM12.6874 6.5L11.9999 9.7345L10.7969 8.5L12.6874 6.5ZM8.31238 6.6565L10.1094 8.5L8.24988 10.469L6.45288 8.5625L8.31238 6.6565ZM13.0779 7.078L13.9219 8.547L12.7809 10.531L12.4374 10.172L13.0779 7.078ZM5.37488 8.1405L5.76538 8.547L5.37488 8.953V8.1405ZM10.4529 8.8595L11.8904 10.328L11.7189 11.125H8.85888L8.59387 10.8435L10.4529 8.8595ZM6.10938 8.922L7.90637 10.8435L7.62488 11.125H5.37488V9.656L6.10938 8.922ZM4.87488 10.172V11.125H4.06238L4.01538 11.0625L4.87488 10.172ZM12.3124 10.7655L12.5154 10.9845L12.4374 11.125H12.2344L12.3124 10.7655ZM4.34338 11.625H4.87488V12.547L4.34338 11.625ZM5.37488 11.625H7.15637L5.40637 13.4845L5.37488 13.422V11.625ZM7.84387 11.625H8.64038L10.3904 13.5H6.07788L7.84387 11.625ZM9.32788 11.625H11.6094L11.2969 13.125L11.0779 13.5L9.32788 11.625ZM12.1249 11.625H12.1564L12.1094 11.703L12.1249 11.625Z" fill="#FE5D26"/>
</svg>
