<svg width="25" height="25" viewBox="0 0 25 25" fill="none" xmlns="http://www.w3.org/2000/svg">
<path fill-rule="evenodd" clip-rule="evenodd" d="M5.972 6.5L2.5 12.5L5.972 18.5H8L4.528 12.5L8 6.5H5.972ZM12.5 14C12.8978 14 13.2794 13.842 13.5607 13.5607C13.842 13.2794 14 12.8978 14 12.5C14 12.1022 13.842 11.7206 13.5607 11.4393C13.2794 11.158 12.8978 11 12.5 11C12.1022 11 11.7206 11.158 11.4393 11.4393C11.158 11.7206 11 12.1022 11 12.5C11 12.8978 11.158 13.2794 11.4393 13.5607C11.7206 13.842 12.1022 14 12.5 14ZM22.5 12.5L19.028 6.5H17L20.472 12.5L17 18.5H19.028L22.5 12.5ZM8.815 8.5L6.5 12.5L8.815 16.5H10.843L8.528 12.5L10.842 8.5H8.815ZM18.843 12.5L16.528 8.5H14.5L16.815 12.5L14.5 16.5H16.528L18.843 12.5Z" fill="#FE5D26"/>
</svg>
